<?xml version="1.0" encoding="UTF-8"?><svg id="Layer_1" xmlns="http://www.w3.org/2000/svg" width="12.94" height="14.93" viewBox="0 0 12.94 14.93"><path d="m4,2.27c.16.18,1.17,1.29,2.35,1.13.58-.08,1.19-.46,1.5-.66.33-.21.58-.41.75-.56v2.25c-.15.15-.97.94-2.25.94-1.37,0-2.21-.89-2.35-1.03v-2.07Z" style="fill:none; stroke:#fff; stroke-miterlimit:10;"/><path d="m6.35,3.39c1.44-.28,2.37-.92,2.35-1.5-.01-.43-.55-.76-.85-.94-1.01-.62-2.11-.35-2.35-.28-.14.04-1.55.44-1.6,1.13-.04.59.94,1.28,2.44,1.6Z" style="fill:none; stroke:#fff; stroke-miterlimit:10;"/><path d="m2.68,3.02c-.72.35-1.45.69-2.17,1.04v6.48l5.71,3.81,6.22-3.45v-6.65c-.69-.34-1.37-.69-2.06-1.03" style="fill:none; stroke:#fff; stroke-miterlimit:10;"/><polyline points=".51 4.06 6.22 7.47 6.22 14.34" style="fill:none; stroke:#fff; stroke-miterlimit:10;"/><line x1="6.22" y1="7.47" x2="12.44" y2="4.24" style="fill:none; stroke:#fff; stroke-miterlimit:10;"/><polygon points=".7 4.36 6.12 7.47 6.12 14.01 .51 10.42 .7 4.36" style="fill:#c1272d; stroke:#fff; stroke-miterlimit:10;"/><path d="m3.89,1.84c.04-.65,1.1-1.06,1.35-1.16.09-.03,1.29-.47,2.46.14.29.15.98.52.98,1.06,0,.41-.38.71-.65.92-.74.58-1.59.58-1.7.58-1.15-.02-2.5-.79-2.45-1.55Z" style="fill:#c1272d; stroke:#fff; stroke-miterlimit:10;"/></svg>