<svg width="259" height="259" viewBox="0 0 259 259" fill="none" xmlns="http://www.w3.org/2000/svg">
<circle cx="129.5" cy="129.5" r="127.5" fill="#242520" stroke="#D0C6A2" stroke-width="4"/>
<path d="M147.718 171.828L142.234 173.012L138.398 155.239L144.126 154.003C145.85 153.631 147.402 153.668 148.782 154.115C150.161 154.556 151.32 155.369 152.259 156.552C153.198 157.73 153.866 159.239 154.263 161.079C154.662 162.93 154.676 164.595 154.305 166.074C153.933 167.547 153.194 168.778 152.087 169.768C150.98 170.752 149.523 171.438 147.718 171.828ZM143.974 170.638L147.167 169.949C148.637 169.632 149.793 169.085 150.637 168.31C151.481 167.534 152.027 166.572 152.276 165.422C152.524 164.273 152.492 162.975 152.18 161.528C151.87 160.094 151.369 158.909 150.677 157.975C149.984 157.034 149.112 156.387 148.06 156.033C147.008 155.673 145.787 155.642 144.399 155.942L140.962 156.684L143.974 170.638ZM159.52 169.281L156.644 155.951L158.692 155.509L161.568 168.839L159.52 169.281ZM157.206 153.505C156.806 153.591 156.433 153.53 156.085 153.32C155.743 153.109 155.53 152.813 155.448 152.431C155.366 152.049 155.437 151.692 155.662 151.359C155.892 151.024 156.207 150.814 156.606 150.728C157.005 150.642 157.376 150.704 157.718 150.915C158.066 151.124 158.281 151.42 158.364 151.802C158.446 152.184 158.372 152.542 158.142 152.876C157.917 153.209 157.605 153.419 157.206 153.505ZM171.839 172.144C170.849 172.358 169.971 172.414 169.205 172.313C168.439 172.218 167.775 172.016 167.212 171.708C166.656 171.404 166.189 171.051 165.812 170.648L167.196 169.15C167.434 169.353 167.728 169.58 168.079 169.832C168.431 170.089 168.878 170.28 169.42 170.405C169.968 170.535 170.645 170.513 171.449 170.339C172.525 170.107 173.357 169.655 173.945 168.983C174.532 168.312 174.706 167.42 174.466 166.31L173.882 163.602L173.709 163.64C173.611 163.915 173.461 164.262 173.261 164.681C173.065 165.092 172.74 165.492 172.285 165.881C171.835 166.263 171.176 166.548 170.308 166.735C169.232 166.967 168.211 166.921 167.244 166.597C166.284 166.271 165.45 165.676 164.743 164.811C164.042 163.946 163.541 162.819 163.241 161.43C162.947 160.065 162.93 158.824 163.192 157.708C163.452 156.586 163.951 155.655 164.687 154.915C165.422 154.169 166.351 153.675 167.473 153.433C168.341 153.245 169.061 153.241 169.632 153.421C170.208 153.593 170.672 153.832 171.022 154.138C171.377 154.437 171.655 154.686 171.855 154.885L172.064 154.84L171.607 152.722L173.585 152.295L176.544 166.006C176.792 167.152 176.732 168.14 176.366 168.969C176.008 169.804 175.428 170.483 174.626 171.007C173.832 171.536 172.903 171.915 171.839 172.144ZM170.188 164.835C171.01 164.658 171.664 164.32 172.149 163.822C172.635 163.323 172.949 162.689 173.092 161.92C173.235 161.15 173.2 160.274 172.988 159.29C172.781 158.33 172.453 157.514 172.005 156.841C171.557 156.169 171.005 155.686 170.348 155.391C169.691 155.097 168.946 155.04 168.113 155.22C167.246 155.407 166.57 155.783 166.086 156.348C165.608 156.911 165.305 157.594 165.175 158.397C165.051 159.199 165.087 160.051 165.282 160.953C165.482 161.879 165.803 162.666 166.246 163.316C166.693 163.958 167.247 164.419 167.907 164.701C168.572 164.975 169.332 165.02 170.188 164.835Z" fill="white"/>
<path d="M127.883 146.208L126.257 135.592L122.639 136.146L122.29 133.872L132.234 132.349L132.583 134.622L128.965 135.177L130.591 145.793L127.883 146.208ZM136.023 144.961L134.523 135.175L137.232 134.76L138.731 144.546L136.023 144.961ZM135.657 133.463C135.222 133.53 134.839 133.447 134.506 133.215C134.174 132.982 133.976 132.655 133.911 132.234C133.846 131.812 133.939 131.447 134.188 131.139C134.436 130.818 134.777 130.624 135.212 130.557C135.66 130.489 136.044 130.571 136.363 130.806C136.693 131.025 136.891 131.345 136.955 131.767C137.02 132.189 136.929 132.56 136.681 132.882C136.447 133.201 136.105 133.395 135.657 133.463ZM143.976 143.985C143.357 144.08 142.843 144.03 142.436 143.836C142.026 143.629 141.701 143.308 141.459 142.873C141.23 142.436 141.067 141.901 140.97 141.269L139.283 130.257L141.991 129.842L143.697 140.972C143.741 141.262 143.825 141.459 143.949 141.561C144.085 141.662 144.213 141.703 144.332 141.685C144.398 141.674 144.45 141.666 144.49 141.66C144.541 141.639 144.604 141.616 144.681 141.59L145.323 143.536C145.175 143.626 144.992 143.708 144.774 143.782C144.558 143.869 144.292 143.936 143.976 143.985ZM129.632 165.809C129.17 165.88 128.75 165.775 128.37 165.496C128.001 165.202 127.779 164.811 127.704 164.324C127.628 163.823 127.722 163.383 127.988 163.006C128.267 162.626 128.637 162.4 129.099 162.33C129.586 162.255 130.007 162.359 130.36 162.642C130.727 162.923 130.949 163.314 131.026 163.815C131.1 164.302 131.006 164.742 130.742 165.133C130.489 165.509 130.119 165.734 129.632 165.809ZM130.631 172.333C130.17 172.403 129.749 172.299 129.369 172.02C129 171.726 128.779 171.335 128.704 170.848C128.627 170.347 128.722 169.907 128.988 169.529C129.267 169.149 129.637 168.924 130.098 168.853C130.586 168.779 131.006 168.883 131.36 169.166C131.727 169.447 131.949 169.838 132.025 170.339C132.1 170.826 132.005 171.266 131.742 171.657C131.489 172.033 131.119 172.258 130.631 172.333Z" fill="white"/>
<path d="M39 105.771L39 171.383" stroke="#BC8A3E" stroke-width="3" stroke-linecap="round"/>
<path d="M110.82 123.505V189.117" stroke="#BC8A3E" stroke-width="3" stroke-linecap="round"/>
<path d="M219.875 105.771V171.383" stroke="#BC8A3E" stroke-width="3" stroke-linecap="round"/>
<path d="M39 171.383L110.818 189.116" stroke="#BC8A3E" stroke-width="3" stroke-linecap="round"/>
<path d="M39 105.771L110.818 123.504" stroke="#BC8A3E" stroke-width="3" stroke-linecap="round"/>
<path d="M110.82 189.116L219.877 171.383" stroke="#BC8A3E" stroke-width="3" stroke-linecap="round"/>
<path d="M110.82 123.505L219.877 105.773" stroke="#BC8A3E" stroke-width="3" stroke-linecap="round"/>
<path d="M39 105.771L148.309 87.9999" stroke="#BC8A3E" stroke-width="3" stroke-linecap="round"/>
<path d="M76.6182 115.103L184.155 96.7431" stroke="#BC8A3E" stroke-width="3" stroke-linecap="round"/>
<path d="M87.1314 135.141C85.6686 138.599 84.3432 139.532 81.0722 139.395" stroke="#448739" stroke-width="2" stroke-linecap="round"/>
<path d="M89.4189 144.843L81.0719 139.396" stroke="#448739" stroke-width="2" stroke-linecap="round"/>
<path d="M87.1328 135.141L89.4207 144.842" stroke="#448739" stroke-width="2" stroke-linecap="round"/>
<path d="M68.6172 131.338L68.4899 135.411" stroke="#448739" stroke-width="2" stroke-linecap="round"/>
<path d="M84.3336 137.662C79.5855 133.25 75.4729 132.036 68.618 131.338" stroke="#448739" stroke-width="2" stroke-linecap="round"/>
<path d="M68.4884 135.412C75.3328 135.295 78.433 135.323 84.3316 137.663" stroke="#448739" stroke-width="2" stroke-linecap="round"/>
<path d="M78.257 167.379C76.367 164.135 76.4146 162.515 78.4861 159.979" stroke="#448739" stroke-width="2" stroke-linecap="round"/>
<path d="M69.1191 163.392L78.4834 159.978" stroke="#448739" stroke-width="2" stroke-linecap="round"/>
<path d="M78.2549 167.379L69.1197 163.393" stroke="#448739" stroke-width="2" stroke-linecap="round"/>
<path d="M92.3301 154.991L89.1468 152.446" stroke="#448739" stroke-width="2" stroke-linecap="round"/>
<path d="M77.8439 163.775C84.2219 162.621 87.6596 160.058 92.3287 154.991" stroke="#448739" stroke-width="2" stroke-linecap="round"/>
<path d="M89.1461 152.446C85.1349 157.993 83.2542 160.458 77.8444 163.775" stroke="#448739" stroke-width="2" stroke-linecap="round"/>
<path d="M53.35 143.979C57.0873 143.62 58.5392 144.341 59.9746 147.284" stroke="#448739" stroke-width="2" stroke-linecap="round"/>
<path d="M60.7959 137.351L59.9767 147.284" stroke="#448739" stroke-width="2" stroke-linecap="round"/>
<path d="M53.3506 143.979L60.7944 137.351" stroke="#448739" stroke-width="2" stroke-linecap="round"/>
<path d="M58.7539 161.621L62.397 159.795" stroke="#448739" stroke-width="2" stroke-linecap="round"/>
<path d="M56.8381 144.789C55.2166 151.065 56.1057 155.26 58.7534 161.621" stroke="#448739" stroke-width="2" stroke-linecap="round"/>
<path d="M62.3973 159.795C59.0383 153.831 57.587 151.091 56.8386 144.79" stroke="#448739" stroke-width="2" stroke-linecap="round"/>
<path d="M148.309 88L220 105.486" stroke="#BC8A3E" stroke-width="3" stroke-linecap="round"/>
</svg>
