<svg width="155" height="191" viewBox="0 0 155 191" fill="none" xmlns="http://www.w3.org/2000/svg">
<path d="M44.3886 109.768L51.0361 52.0403H107.565L116.311 109.768H44.3886Z" fill="#242520" stroke="#902E40" stroke-width="2"/>
<path d="M106.433 173.03L104.442 148.415C96.8405 138.822 99.9174 118.995 106.433 118.551C110.645 118.264 113.975 122.835 114.759 125.972L120.913 180.451L104.08 189.32L103.356 175.745L106.433 173.03Z" fill="#242520" stroke="#902E40" stroke-width="2"/>
<path d="M74.3971 172.668L73.8542 147.872C75.5917 149.754 78.6806 149.862 79.6459 149.862L81.9989 173.03L78.017 174.84L79.103 186.242H70.9583V172.668H74.3971Z" fill="#242520" stroke="#902E40" stroke-width="2"/>
<path d="M76.5169 120.18H73.3763C67.4645 135.224 73.0068 146.659 76.5169 150.044C77.9948 150.044 78.7188 149.501 79.8273 149.501C72.5854 140.024 74.3616 125.884 76.5169 120.18Z" fill="#242520" stroke="#902E40" stroke-width="2"/>
<path d="M102.995 120.396L77.0789 120.396C71.7149 134.988 76.8977 145.656 80.1596 149.166C91.7574 149.166 94.6568 149.918 104.442 149.166C96.9039 140.892 100.518 126.601 102.995 120.396Z" fill="#242520" stroke="#902E40" stroke-width="2"/>
<path d="M73.1253 120.18H48.6433C43.6738 133.298 47.3035 143.695 49.7395 147.254C60.3362 147.254 68.9232 147.635 73.6734 146.682C68.8501 136.31 71.3592 124.565 73.1253 120.18Z" fill="#242520" stroke="#902E40" stroke-width="2"/>
<path d="M124.352 98.28C120.413 93.1489 111.487 83.0755 110.197 81.4858C109.009 81.1941 90.8144 71.1217 99.9177 54.1174C101.856 50.4975 116.388 52.1265 127.429 63.5292C132.206 68.4635 137.142 81.2062 139.555 86.5154C137.263 89.6526 131.012 96.3977 124.352 98.28Z" fill="#242520"/>
<path d="M124.352 98.28C119.767 92.3072 108.424 79.6376 110.234 81.4476C111.044 82.257 90.325 72.0358 99.9177 54.1174C101.856 50.4975 116.388 52.1265 127.429 63.5292C132.206 68.4635 137.142 81.2062 139.555 86.5154C137.263 89.6526 131.012 96.3977 124.352 98.28Z" stroke="#902E40" stroke-width="2"/>
<path d="M38.5605 68.7777C42.9044 59.2212 47.3689 55.1429 49.0582 54.2982L44.5333 94.4788L32.4068 98.4607L33.4927 95.9268L33.8547 92.1259L32.4068 86.5151L31.3208 83.0762L29.3299 80.5423L26.977 78.5514L24.0811 77.8274C26.253 73.1216 36.4215 73.4835 38.5605 68.7777Z" fill="#242520" stroke="#902E40" stroke-width="2"/>
<rect x="59.1084" y="6.79163" width="41.0765" height="36.3707" rx="9" fill="#242520" stroke="#902E40" stroke-width="2"/>
<path d="M70.5937 1H88.9588C90.5604 1 91.8588 2.29838 91.8588 3.9V4.7918H69.2437V2.35C69.2437 1.60442 69.8481 1 70.5937 1Z" fill="#242520" stroke="#902E40" stroke-width="2"/>
<rect x="65.9861" y="45.1627" width="27.683" height="4.51577" fill="#242520" stroke="#902E40" stroke-width="2"/>
<rect x="45.3525" y="112.13" width="51.5741" height="7.04968" fill="#242520" stroke="#902E40" stroke-width="2"/>
<path d="M99.2886 112.13H114.664V119.179H99.2886V112.13Z" fill="#242520" stroke="#902E40" stroke-width="2"/>
<ellipse cx="27.4558" cy="88.6967" rx="5.24882" ry="10.7198" transform="rotate(-19.4168 27.4558 88.6967)" fill="#242520"/>
<path d="M30.1069 87.9648C30.7979 89.9251 30.8927 91.8378 30.5365 93.326C30.1774 94.8259 29.4066 95.7614 28.4668 96.0926C27.5271 96.4239 26.34 96.1786 25.1198 95.2353C23.9091 94.2994 22.7836 92.7501 22.0926 90.7897C21.4016 88.8293 21.3068 86.9167 21.6631 85.4285C22.0221 83.9286 22.7929 82.9931 23.7327 82.6618C24.6724 82.3306 25.8595 82.5759 27.0797 83.5192C28.2904 84.4551 29.4159 86.0044 30.1069 87.9648Z" fill="#242520" stroke="#902E40" stroke-width="2"/>
<path d="M2 88.868L7.42981 103.529C8.69047 104.192 11.5576 104.94 12.9407 102.623C13.1782 103.193 13.3563 103.492 13.4026 103.529C16.8415 106.243 23.5382 108.053 28.2441 100.994C30.597 96.6505 22.5414 80.7736 21.0043 79.8181C14.3076 75.6552 3.56861 84.8862 2 88.868Z" fill="#242520"/>
<path d="M7.42981 85.6102C11.9547 79.4563 22.4523 81.4473 20.4614 85.6102C18.8686 88.9404 12.0753 90.859 8.87776 91.402C9.98252 94.6202 12.0127 100.401 12.9407 102.623M12.9407 102.623C13.1782 103.193 13.3563 103.492 13.4026 103.529C16.8415 106.243 23.5382 108.053 28.2441 100.994C30.597 96.6505 22.5414 80.7736 21.0043 79.8181C14.3076 75.6552 3.56861 84.8862 2 88.868L7.42981 103.529C8.69047 104.192 11.5576 104.94 12.9407 102.623Z" stroke="#902E40" stroke-width="2"/>
<path d="M130.765 96.7394L136.652 91.7469C137.445 91.0746 138.641 91.2143 139.258 92.0511C139.567 92.471 139.679 93.0048 139.563 93.5135L139.325 94.5606C139.142 95.3681 138.633 96.0638 137.919 96.483L132.74 99.5228C132.114 99.8903 131.324 99.8231 130.769 99.3553C129.959 98.6723 129.957 97.4248 130.765 96.7394Z" fill="#242520" stroke="#902E40" stroke-width="2"/>
<path d="M140.46 91.4022C145.528 90.9196 157.929 94.2722 152.768 107.692C150.958 112.398 150.958 111.13 148.786 114.931C148.786 114.821 148.777 114.7 148.76 114.569C148.648 115.897 147.374 117.646 146.795 116.922C146.216 116.198 145.407 114.811 144.442 114.207C144.442 114.207 143.356 114.931 139.736 122.352C133.039 123.619 123.447 111.854 129.6 105.882L131.048 100.814C131.048 101.248 131.772 101.236 132.134 101.176L140.098 96.2891L140.822 92.6692L140.46 91.4022Z" fill="#242520"/>
<path d="M129.6 105.882C123.447 111.854 133.039 123.619 139.736 122.352C143.356 114.931 144.442 114.207 144.442 114.207M129.6 105.882L131.048 100.814C131.048 101.248 131.772 101.236 132.134 101.176L140.098 96.2891L140.822 92.6692L140.46 91.4022C145.528 90.9196 157.929 94.2722 152.768 107.692C150.958 112.398 150.958 111.13 148.786 114.931C148.786 114.821 148.777 114.7 148.76 114.569M129.6 105.882C139.182 96.5815 148.218 110.418 148.76 114.569M144.442 114.207C144.683 110.226 139.555 104.253 132.134 109.502M144.442 114.207C145.407 114.811 146.216 116.198 146.795 116.922C147.374 117.646 148.648 115.897 148.76 114.569" stroke="#902E40" stroke-width="2"/>
<rect x="50.4207" y="148.329" width="22.2532" height="22.9771" fill="#242520" stroke="#902E40" stroke-width="2"/>
<path d="M83.4335 172.03L80.9494 150.501H103.18L104.984 172.03H83.4335Z" fill="#242520" stroke="#902E40" stroke-width="2"/>
<rect x="45.3525" y="173.668" width="24.4251" height="11.3935" fill="#242520" stroke="#902E40" stroke-width="2"/>
<path d="M80.7276 188.319L79.4902 176.564H102.051L102.665 188.319H80.7276Z" fill="#242520" stroke="#902E40" stroke-width="2"/>
<path d="M82.3876 173.392H105.89L103.158 175.202H78.3794L82.3876 173.392Z" fill="#242520"/>
</svg>
