<svg width="259" height="259" viewBox="0 0 259 259" fill="none" xmlns="http://www.w3.org/2000/svg">
<circle cx="129.5" cy="129.5" r="127.5" fill="#242520" stroke="#D0C6A2" stroke-width="4"/>
<g clip-path="url(#clip0_632_4787)">
<path d="M160.081 214.103L168.013 220.906L190.675 211.187L190.918 197.795L168.175 207.3L160.081 200.484V214.103Z" stroke="#902E40" stroke-miterlimit="10"/>
<path d="M168.175 207.3L168.013 220.906" stroke="#902E40" stroke-miterlimit="10"/>
<path d="M165.513 198.56C165.513 198.56 165.301 201.524 169.534 201.312C173.766 201.099 173.958 198.56 173.958 198.56C173.958 198.56 172.898 196.293 169.735 196.368C166.572 196.443 165.513 198.56 165.513 198.56Z" stroke="#902E40" stroke-miterlimit="10"/>
<path d="M173.958 198.56V202.387C173.958 202.387 173.427 204.064 169.735 204.117C166.043 204.17 165.512 202.423 165.512 202.423V198.56" stroke="#902E40" stroke-miterlimit="10"/>
<path d="M176.998 193.687C176.998 193.687 176.789 196.619 180.973 196.408C185.158 196.199 185.347 193.687 185.347 193.687C185.347 193.687 184.3 191.447 181.172 191.52C178.045 191.593 176.999 193.687 176.999 193.687H176.998Z" stroke="#902E40" stroke-miterlimit="10"/>
<path d="M170.449 196.366L176.999 193.689V197.508C176.999 197.508 177.521 199.237 181.172 199.183C184.822 199.13 185.346 197.473 185.346 197.473V193.689" stroke="#902E40" stroke-miterlimit="10"/>
<path d="M160.081 200.484L165.667 198.313" stroke="#902E40" stroke-miterlimit="10"/>
<path d="M190.918 197.795L185.027 193.195" stroke="#902E40" stroke-miterlimit="10"/>
<path d="M183.512 191.983L182.581 191.102L181.853 191.543" stroke="#902E40" stroke-miterlimit="10"/>
</g>
<path d="M148.573 89.543L148.573 126.927" stroke="#BC8A3E" stroke-width="3" stroke-linecap="round"/>
<path d="M107.651 99.647V137.031" stroke="#BC8A3E" stroke-width="3" stroke-linecap="round"/>
<path d="M45.5146 89.543V126.927" stroke="#BC8A3E" stroke-width="3" stroke-linecap="round"/>
<path d="M148.573 126.927L107.653 137.031" stroke="#BC8A3E" stroke-width="3" stroke-linecap="round"/>
<path d="M148.573 89.543L107.653 99.6469" stroke="#BC8A3E" stroke-width="3" stroke-linecap="round"/>
<path d="M107.651 137.031L45.5125 126.927" stroke="#BC8A3E" stroke-width="3" stroke-linecap="round"/>
<path d="M107.651 99.647L45.5125 89.5431" stroke="#BC8A3E" stroke-width="3" stroke-linecap="round"/>
<path d="M148.573 89.543L94.5175 80.9547" stroke="#BC8A3E" stroke-width="3" stroke-linecap="round"/>
<path d="M164.999 67.0342L148.573 89.5434" stroke="#BC8A3E" stroke-width="3" stroke-linecap="round"/>
<path d="M102.972 57L87.9211 77.0674" stroke="#BC8A3E" stroke-width="3" stroke-linecap="round"/>
<path d="M164.999 67.0342L102.972 57.0005" stroke="#BC8A3E" stroke-width="3" stroke-linecap="round"/>
<path d="M92.0264 77.9795L107.652 99.6467" stroke="#BC8A3E" stroke-width="3" stroke-linecap="round"/>
<path d="M30 67.9458L45.5137 89.5428" stroke="#BC8A3E" stroke-width="3" stroke-linecap="round"/>
<path d="M92.0264 77.9795L29.9998 67.9458" stroke="#BC8A3E" stroke-width="3" stroke-linecap="round"/>
<g clip-path="url(#clip1_632_4787)">
<path d="M59.0771 106.347V116.789L70.892 126.91L87.9237 119.744V109.311L71.1083 116.628L59.0771 106.347Z" stroke="#D0C6A2" stroke-miterlimit="10"/>
<path d="M71.108 116.628L70.8916 126.91" stroke="#D0C6A2" stroke-miterlimit="10"/>
<path d="M63.066 104.945C63.066 104.945 62.9125 107.126 65.9813 106.97C69.0501 106.814 69.1882 104.945 69.1882 104.945C69.1882 104.945 68.4195 103.278 66.1256 103.332C63.8316 103.387 63.0645 104.945 63.0645 104.945H63.066Z" stroke="#D0C6A2" stroke-miterlimit="10"/>
<path d="M69.1888 104.945V107.76C69.1888 107.76 68.8036 108.992 66.1261 109.032C63.4486 109.073 63.0635 107.786 63.0635 107.786V104.945" stroke="#D0C6A2" stroke-miterlimit="10"/>
<path d="M71.7447 101.399C71.7447 101.399 71.5913 103.58 74.66 103.424C77.7288 103.269 77.8669 101.399 77.8669 101.399C77.8669 101.399 77.0982 99.7324 74.8043 99.787C72.5104 99.8415 71.7432 101.399 71.7432 101.399H71.7447Z" stroke="#D0C6A2" stroke-miterlimit="10"/>
<path d="M77.8665 101.399V104.214C77.8665 104.214 77.4814 105.447 74.8039 105.487C72.1263 105.528 71.7412 104.241 71.7412 104.241V101.399" stroke="#D0C6A2" stroke-miterlimit="10"/>
<path d="M78.0357 106.54C78.0357 106.54 77.8823 108.721 80.9511 108.565C84.0198 108.409 84.1579 106.54 84.1579 106.54C84.1579 106.54 83.3892 104.873 81.0953 104.928C78.8014 104.982 78.0342 106.54 78.0342 106.54H78.0357Z" stroke="#D0C6A2" stroke-miterlimit="10"/>
<path d="M84.1575 106.54V109.355C84.1575 109.355 83.7724 110.587 81.0949 110.628C78.4174 110.668 78.0322 109.381 78.0322 109.381V106.54" stroke="#D0C6A2" stroke-miterlimit="10"/>
<path d="M69.1363 110.123C69.1363 110.123 68.9829 112.304 72.0516 112.148C75.1204 111.992 75.2585 110.123 75.2585 110.123C75.2585 110.123 74.4898 108.456 72.1959 108.511C69.902 108.565 69.1348 110.123 69.1348 110.123H69.1363Z" stroke="#D0C6A2" stroke-miterlimit="10"/>
<path d="M75.2581 110.123V112.938C75.2581 112.938 74.873 114.17 72.1955 114.211C69.5179 114.251 69.1328 112.964 69.1328 112.964V110.123" stroke="#D0C6A2" stroke-miterlimit="10"/>
<path d="M59.0771 106.347L63.2277 104.694" stroke="#D0C6A2" stroke-miterlimit="10"/>
<path d="M66.6025 103.331L71.9315 101.113" stroke="#D0C6A2" stroke-miterlimit="10"/>
<path d="M75.1875 99.804C75.4177 99.6747 75.6478 99.5438 75.878 99.4146C79.8935 102.714 83.9074 106.012 87.9229 109.311" stroke="#D0C6A2" stroke-miterlimit="10"/>
</g>
<path d="M98.25 180.415L98.25 218.8" stroke="#BC8A3E" stroke-width="3" stroke-linecap="round"/>
<path d="M140.269 190.79V229.175" stroke="#BC8A3E" stroke-width="3" stroke-linecap="round"/>
<path d="M204.069 180.415V218.8" stroke="#BC8A3E" stroke-width="3" stroke-linecap="round"/>
<path d="M98.25 218.801L140.267 229.175" stroke="#BC8A3E" stroke-width="3" stroke-linecap="round"/>
<path d="M98.25 180.415L140.267 190.789" stroke="#BC8A3E" stroke-width="3" stroke-linecap="round"/>
<path d="M140.269 229.175L204.072 218.801" stroke="#BC8A3E" stroke-width="3" stroke-linecap="round"/>
<path d="M140.269 190.79L204.072 180.415" stroke="#BC8A3E" stroke-width="3" stroke-linecap="round"/>
<path d="M98.25 180.415L153.754 171.596" stroke="#BC8A3E" stroke-width="3" stroke-linecap="round"/>
<path d="M81.3848 157.303L98.2506 180.415" stroke="#BC8A3E" stroke-width="3" stroke-linecap="round"/>
<path d="M145.074 147L160.528 167.605" stroke="#BC8A3E" stroke-width="3" stroke-linecap="round"/>
<path d="M81.3848 157.303L145.073 147" stroke="#BC8A3E" stroke-width="3" stroke-linecap="round"/>
<path d="M156.312 168.542L140.268 190.79" stroke="#BC8A3E" stroke-width="3" stroke-linecap="round"/>
<path d="M220 158.239L204.071 180.414" stroke="#BC8A3E" stroke-width="3" stroke-linecap="round"/>
<path d="M156.312 168.542L220.001 158.239" stroke="#BC8A3E" stroke-width="3" stroke-linecap="round"/>
<defs>
<clipPath id="clip0_632_4787">
<rect width="31" height="30" fill="white" transform="translate(160 191)"/>
</clipPath>
<clipPath id="clip1_632_4787">
<rect width="29" height="30" fill="white" transform="translate(59 97)"/>
</clipPath>
</defs>
</svg>
