<svg width="259" height="259" viewBox="0 0 259 259" fill="none" xmlns="http://www.w3.org/2000/svg">
<circle cx="129.5" cy="129.5" r="127.5" fill="#242520" stroke="#D0C6A2" stroke-width="4"/>
<rect x="234.565" y="116.286" width="13.4148" height="31.5714" rx="4" fill="#902E40"/>
<ellipse cx="209.97" cy="133" rx="30.556" ry="61.2857" fill="#242520" stroke="#902E40" stroke-width="2"/>
<ellipse cx="198.792" cy="133" rx="32.7918" ry="65" fill="#242520" stroke="#902E40" stroke-width="2"/>
<path d="M212.207 194.286L206.245 196.143" stroke="#902E40" stroke-width="2" stroke-linecap="round"/>
<path d="M212.207 71.7139L206.245 69.8567" stroke="#902E40" stroke-width="2" stroke-linecap="round"/>
<path d="M186.865 90.7192L196.079 127.862" stroke="#D0C6A2" stroke-width="2" stroke-linecap="round"/>
<path d="M212.205 90.7192L202.991 127.862" stroke="#D0C6A2" stroke-width="2" stroke-linecap="round"/>
<path d="M186.865 90.7182C196.574 87.6964 201.947 87.6356 212.204 90.7182" stroke="#D0C6A2" stroke-width="2" stroke-linecap="round"/>
<path d="M223.412 114.389L203.44 129.009" stroke="#D0C6A2" stroke-width="2" stroke-linecap="round"/>
<path d="M223.898 153.523L203.572 139.681" stroke="#D0C6A2" stroke-width="2" stroke-linecap="round"/>
<path d="M223.412 114.387C225.237 129.351 225.374 137.648 223.898 153.523" stroke="#D0C6A2" stroke-width="2" stroke-linecap="round"/>
<path d="M173.956 155.041L195.004 139.255" stroke="#D0C6A2" stroke-width="2" stroke-linecap="round"/>
<path d="M173.275 113.109L194.819 127.82" stroke="#D0C6A2" stroke-width="2" stroke-linecap="round"/>
<path d="M173.956 155.042C171.962 139.019 171.783 130.129 173.274 113.11" stroke="#D0C6A2" stroke-width="2" stroke-linecap="round"/>
<path d="M186.865 177.571L196.079 140.428" stroke="#D0C6A2" stroke-width="2" stroke-linecap="round"/>
<path d="M212.205 177.571L202.991 140.428" stroke="#D0C6A2" stroke-width="2" stroke-linecap="round"/>
<path d="M186.865 177.571C196.574 180.593 201.947 180.654 212.204 177.571" stroke="#D0C6A2" stroke-width="2" stroke-linecap="round"/>
<path d="M203.753 133.929C203.753 136.625 203.193 139.016 202.335 140.696C201.449 142.431 200.405 143.143 199.536 143.143C198.667 143.143 197.624 142.431 196.738 140.696C195.88 139.016 195.319 136.625 195.319 133.929C195.319 131.233 195.88 128.841 196.738 127.161C197.624 125.427 198.667 124.714 199.536 124.714C200.405 124.714 201.449 125.427 202.335 127.161C203.193 128.841 203.753 131.233 203.753 133.929Z" fill="#242520" stroke="#902E40" stroke-width="2"/>
<path d="M110.005 116.677C114.166 108.09 119.383 110.924 121.471 113.415C123.514 116.187 129.073 120.476 134.969 115.457C142.338 109.183 145.223 113.402 148.391 115.329C151.559 117.256 154.703 120.39 162.295 114.839" stroke="#FF9C64" stroke-width="2" stroke-linecap="round"/>
<path d="M124.005 172.677C128.166 164.09 133.383 166.924 135.471 169.415C137.514 172.187 143.073 176.476 148.969 171.457C156.338 165.183 159.223 169.402 162.391 171.329C165.559 173.256 168.703 176.39 176.295 170.839" stroke="#FF9C64" stroke-width="2" stroke-linecap="round"/>
<path d="M131.005 139.677C135.166 131.09 140.383 133.924 142.471 136.415C144.514 139.187 150.073 143.476 155.969 138.457C163.338 132.183 166.223 136.402 169.391 138.329C172.559 140.256 175.703 143.39 183.295 137.839" stroke="#FF9C64" stroke-width="2" stroke-linecap="round"/>
<g clip-path="url(#clip0_632_4789)">
<path d="M128.712 151.11V175.5L99.3402 199.665L19.2878 165.524V141.615L99.9161 175.361L128.712 151.11Z" stroke="#D0C6A2" stroke-width="2" stroke-miterlimit="10"/>
<path d="M99.916 175.361L99.3401 199.664" stroke="#D0C6A2" stroke-width="2" stroke-miterlimit="10"/>
<path d="M118.916 147.881C118.916 147.881 119.296 153.251 111.665 152.869C104.028 152.487 103.683 147.881 103.683 147.881C103.683 147.881 105.595 143.779 111.302 143.912C117.01 144.045 118.916 147.881 118.916 147.881Z" stroke="#D0C6A2" stroke-width="2" stroke-miterlimit="10"/>
<path d="M103.683 147.881V154.814C103.683 154.814 104.639 157.851 111.303 157.95C117.966 158.048 118.922 154.883 118.922 154.883V147.887" stroke="#D0C6A2" stroke-width="2" stroke-miterlimit="10"/>
<path d="M98.2342 139.271C98.2342 139.271 98.6143 144.641 90.9834 144.259C83.3467 143.877 83.0012 139.271 83.0012 139.271C83.0012 139.271 84.9132 135.168 90.6206 135.302C96.3279 135.435 98.2342 139.271 98.2342 139.271Z" stroke="#D0C6A2" stroke-width="2" stroke-miterlimit="10"/>
<path d="M83.0017 139.271V146.203C83.0017 146.203 83.9578 149.241 90.6211 149.339C97.2845 149.438 98.2405 146.273 98.2405 146.273V139.277L109.816 143.918" stroke="#D0C6A2" stroke-width="2" stroke-miterlimit="10"/>
<path d="M103.994 160.102C103.994 160.102 104.374 165.472 96.7432 165.09C89.1065 164.708 88.761 160.102 88.761 160.102C88.761 160.102 90.673 155.999 96.3803 156.133C102.088 156.266 103.994 160.102 103.994 160.102Z" stroke="#D0C6A2" stroke-width="2" stroke-miterlimit="10"/>
<path d="M88.7603 160.103V167.035C88.7603 167.035 89.7163 170.073 96.3797 170.171C103.043 170.269 103.999 167.104 103.999 167.104V160.108" stroke="#D0C6A2" stroke-width="2" stroke-miterlimit="10"/>
<path d="M83.0936 151.654C83.0936 151.654 83.4737 157.024 75.8428 156.642C68.2061 156.26 67.8606 151.654 67.8606 151.654C67.8606 151.654 69.7726 147.551 75.4799 147.684C81.1873 147.817 83.0936 151.654 83.0936 151.654Z" stroke="#D0C6A2" stroke-width="2" stroke-miterlimit="10"/>
<path d="M67.8609 151.654V158.586C67.8609 158.586 68.8169 161.624 75.4802 161.723C82.1436 161.821 83.0996 158.656 83.0996 158.656V151.66" stroke="#D0C6A2" stroke-width="2" stroke-miterlimit="10"/>
<path d="M78.2732 131.442C78.2732 131.442 78.6534 136.812 71.0225 136.43C63.3858 136.048 63.0403 131.442 63.0403 131.442C63.0403 131.442 64.9523 127.339 70.6596 127.472C76.367 127.605 78.2732 131.442 78.2732 131.442Z" stroke="#D0C6A2" stroke-width="2" stroke-miterlimit="10"/>
<path d="M63.0406 131.442V138.374C63.0406 138.374 63.9966 141.412 70.6599 141.51C77.3233 141.609 78.2793 138.444 78.2793 138.444V131.448" stroke="#D0C6A2" stroke-width="2" stroke-miterlimit="10"/>
<path d="M63.2996 143.015C63.2996 143.015 63.6797 148.385 56.0488 148.003C48.4122 147.621 48.0666 143.015 48.0666 143.015C48.0666 143.015 49.9787 138.912 55.686 139.045C61.3933 139.178 63.2996 143.015 63.2996 143.015Z" stroke="#D0C6A2" stroke-width="2" stroke-miterlimit="10"/>
<path d="M48.0669 143.015V149.947C48.0669 149.947 49.0229 152.985 55.6863 153.083C62.3496 153.181 63.3057 150.016 63.3057 150.016V143.02" stroke="#D0C6A2" stroke-width="2" stroke-miterlimit="10"/>
<path d="M58.116 123.341C58.116 123.341 58.4961 128.711 50.8652 128.329C43.2286 127.947 42.883 123.341 42.883 123.341C42.883 123.341 44.7951 119.238 50.5024 119.371C56.2097 119.504 58.116 123.341 58.116 123.341Z" stroke="#D0C6A2" stroke-width="2" stroke-miterlimit="10"/>
<path d="M32.1195 131.442L42.8833 123.341V130.273C42.8833 130.273 43.8393 133.311 50.5027 133.409C57.166 133.508 58.1221 130.342 58.1221 130.342V123.347" stroke="#D0C6A2" stroke-width="2" stroke-miterlimit="10"/>
<path d="M43.1424 134.914C43.1424 134.914 43.5225 140.283 35.8916 139.902C28.255 139.52 27.9094 134.914 27.9094 134.914C27.9094 134.914 29.8214 130.811 35.5288 130.944C41.2361 131.077 43.1424 134.914 43.1424 134.914Z" stroke="#D0C6A2" stroke-width="2" stroke-miterlimit="10"/>
<path d="M27.9097 134.914V141.846C27.9097 141.846 28.8657 144.884 35.5291 144.983C42.1924 145.081 43.1484 141.916 43.1484 141.916V134.92" stroke="#D0C6A2" stroke-width="2" stroke-miterlimit="10"/>
<path d="M19.2875 141.615L28.2891 134.283" stroke="#D0C6A2" stroke-width="2" stroke-miterlimit="10"/>
<path d="M47.4966 119.742L48.948 118.365L50.5029 119.372" stroke="#D0C6A2" stroke-width="2" stroke-miterlimit="10"/>
<path d="M57.3671 122.288L69.4268 127.466" stroke="#D0C6A2" stroke-width="2" stroke-miterlimit="10"/>
<path d="M77.9623 130.938L88.7607 135.417" stroke="#D0C6A2" stroke-width="2" stroke-miterlimit="10"/>
<path d="M118.484 147.222L128.712 151.11" stroke="#D0C6A2" stroke-width="2" stroke-miterlimit="10"/>
</g>
<path d="M234.003 195.92C233.959 196.471 234.37 196.953 234.92 196.997C235.471 197.041 235.953 196.63 235.997 196.08L234.003 195.92ZM228.024 184.351C229.043 183.725 230.551 183.068 231.818 182.998C232.437 182.964 232.905 183.074 233.236 183.298C233.546 183.506 233.86 183.898 234.019 184.696L235.981 184.304C235.74 183.102 235.188 182.202 234.355 181.64C233.543 181.092 232.592 180.952 231.707 181.001C229.966 181.098 228.124 181.942 226.976 182.648L228.024 184.351ZM234.019 184.696C234.785 188.525 234.342 191.686 234.003 195.92L235.997 196.08C236.325 191.981 236.815 188.475 235.981 184.304L234.019 184.696Z" fill="#902E40"/>
<path d="M252.018 111.189C252.123 111.732 252.647 112.086 253.189 111.982C253.732 111.877 254.086 111.353 253.982 110.811L252.018 111.189ZM228.593 83.8048C230.067 82.7189 231.85 81.9012 233.765 81.7335C235.659 81.5677 237.745 82.0298 239.882 83.6049C244.22 86.8023 248.828 94.6393 252.018 111.189L253.982 110.811C250.772 94.1607 246.047 85.6643 241.068 81.9949C238.547 80.1366 235.979 79.532 233.591 79.7411C231.225 79.9483 229.1 80.9474 227.407 82.1947L228.593 83.8048Z" fill="#902E40"/>
<path d="M30.2672 139.872C30.0761 140.963 29.0435 141.694 27.9608 141.505C26.8781 141.315 26.1553 140.277 26.3464 139.185C26.5375 138.094 27.9338 136.228 29.0395 135.343C29.8942 136.571 30.4583 138.78 30.2672 139.872Z" fill="#07709D"/>
<path d="M29.4483 140.26C28.7915 141.265 27.542 141.046 27.8704 140.544C28.5464 140.802 28.9461 139.892 29.6645 138.339C29.8192 138.599 29.9646 139.371 29.4483 140.26Z" fill="#15A0DC"/>
<path d="M108 179.472C108 181.42 106.433 183 104.5 183C102.567 183 101 181.42 101 179.472C101 177.523 102.853 173.868 104.5 172C106.353 173.868 108 177.523 108 179.472Z" fill="#07709D"/>
<path d="M106.699 180.394C105.866 182.333 103.635 182.333 104.051 181.363C105.301 181.606 105.717 179.909 106.49 177C106.837 177.404 107.323 178.697 106.699 180.394Z" fill="#15A0DC"/>
<path d="M64.3801 180.744C64.5919 182.681 63.2059 184.422 61.2843 184.632C59.3628 184.842 57.6333 183.442 57.4215 181.505C57.2097 179.568 58.6544 175.733 60.0886 173.697C62.1336 175.353 64.1682 178.807 64.3801 180.744Z" fill="#07709D"/>
<path d="M63.1863 181.802C62.5689 183.82 60.3514 184.062 60.6601 183.053C61.9283 183.159 62.158 181.427 62.6105 178.451C62.9993 178.815 63.6228 180.047 63.1863 181.802Z" fill="#15A0DC"/>
<path d="M80.4781 134.668C80.7663 135.885 80.0211 137.104 78.8136 137.389C77.6061 137.675 76.3935 136.92 76.1053 135.703C75.817 134.486 76.4338 131.928 77.1864 130.518C78.6202 131.411 80.1898 133.45 80.4781 134.668Z" fill="#07709D"/>
<path d="M79.8011 135.436C79.5675 136.771 78.174 137.101 78.2908 136.433C79.107 136.4 79.1163 135.278 79.169 133.347C79.4456 133.548 79.9403 134.284 79.8011 135.436Z" fill="#15A0DC"/>
<defs>
<clipPath id="clip0_632_4789">
<rect width="110" height="82" fill="white" transform="matrix(-1 0 0 1 129 118)"/>
</clipPath>
</defs>
</svg>
