<svg width="46" height="30" viewBox="0 0 46 30" fill="none" xmlns="http://www.w3.org/2000/svg">
<path d="M41.3181 21.9625L44.7806 4.61957L8.60093 4.61957L12.0635 21.9625L41.3181 21.9625Z" stroke="#D0C6A2" stroke-width="2"/>
<path d="M32.6969 25.7258C32.6969 27.4303 34.1374 28.8707 35.9879 28.8707C37.8383 28.8707 39.2788 27.4303 39.2788 25.7258C39.2788 24.0213 37.8383 22.5809 35.9879 22.5809C34.1374 22.5809 32.6969 24.0213 32.6969 25.7258Z" stroke="#D0C6A2" stroke-width="2"/>
<path d="M14.1026 25.7258C14.1026 27.4303 15.5431 28.8707 17.3935 28.8707C19.244 28.8707 20.6844 27.4303 20.6844 25.7258C20.6844 24.0213 19.244 22.5809 17.3935 22.5809C15.5431 22.5809 14.1026 24.0213 14.1026 25.7258Z" stroke="#D0C6A2" stroke-width="2"/>
<path d="M39 5L35.4294 22.1086" stroke="#D0C6A2" stroke-width="2" stroke-linecap="round"/>
<path d="M15 5L18 22" stroke="#D0C6A2" stroke-width="2" stroke-linecap="round"/>
<path d="M31 5L30 21" stroke="#D0C6A2" stroke-width="2" stroke-linecap="round"/>
<path d="M23 5L24 21" stroke="#D0C6A2" stroke-width="2" stroke-linecap="round"/>
<path d="M43.1395 10.9098L10.2423 10.9098" stroke="#D0C6A2" stroke-width="2" stroke-linecap="round"/>
<path d="M42 17L12 17" stroke="#D0C6A2" stroke-width="2" stroke-linecap="round"/>
<path d="M9 5L6 1" stroke="#D0C6A2" stroke-width="2" stroke-linecap="round"/>
<path d="M6 1.00006L0.999937 1" stroke="#D0C6A2" stroke-width="2" stroke-linecap="round"/>
</svg>
