<svg width="142" height="36" viewBox="0 0 142 36" fill="none" xmlns="http://www.w3.org/2000/svg">
<g clip-path="url(#clip0_354_1648)">
<path d="M10.2501 5.95082C10.6505 6.4003 13.0949 9.07254 15.955 8.68761C17.3698 8.49749 18.8561 7.56214 19.6064 7.09154C20.4012 6.59159 21.0129 6.094 21.4321 5.72314V11.1967C21.0599 11.5687 19.0804 13.4758 15.9562 13.477C12.6335 13.4793 10.5812 11.3258 10.2513 10.9679V5.94965L10.2501 5.95082Z" stroke="#F2F2F2" stroke-width="1.5" stroke-miterlimit="10"/>
<path d="M16.0501 8.67696C19.5696 7.99927 21.848 6.45788 21.8042 5.06181C21.7711 4.02492 20.4601 3.23912 19.733 2.80321C17.2533 1.3153 14.5734 1.96509 13.9789 2.12551C13.6343 2.2185 10.1729 3.18681 10.0663 4.83629C9.97513 6.24748 12.3578 7.92487 16.0501 8.67696Z" stroke="#F2F2F2" stroke-width="1.5" stroke-miterlimit="10"/>
<path d="M7.00917 7.75391C5.23149 8.59573 3.45499 9.43755 1.67731 10.2794V26.018L15.6736 35.2616L30.9368 26.8727V10.7197C29.2563 9.88253 27.5758 9.04658 25.8953 8.20945" stroke="#F2F2F2" stroke-width="1.5" stroke-miterlimit="10"/>
<path d="M1.67731 10.3384L15.6548 18.6004V35.2615" stroke="#F2F2F2" stroke-width="1.5" stroke-miterlimit="10"/>
<path d="M15.6547 18.6462L30.9367 10.7078" stroke="#F2F2F2" stroke-width="1.5" stroke-miterlimit="10"/>
<path d="M10.1375 11.0774C10.4847 11.4196 12.9695 13.7941 16.6265 13.4413C19.2433 13.1893 20.9209 11.6903 21.4321 11.1946V6.50661C21.0695 6.71756 20.5321 7.01525 19.8651 7.3399C17.8487 8.31851 16.8417 8.81661 15.7836 8.85529C12.7531 8.9678 10.0638 5.90771 10.0638 5.90771C10.0887 7.63055 10.1125 9.35339 10.1375 11.0774Z" fill="#902E40" stroke="#F2F2F2" stroke-width="1.5" stroke-miterlimit="10"/>
<path d="M2.15262 11.0769L15.4684 18.6296V34.5231L1.67731 25.8077L2.15262 11.0769Z" fill="#902E40" stroke="#F2F2F2" stroke-width="1.5" stroke-miterlimit="10"/>
</g>
<path d="M44.0994 28.1768C41.3636 28.1768 39.0365 27.4014 37.1001 25.8331C35.0394 24.159 34.0269 22.0092 34.0269 19.3484C34.0269 16.2293 35.0039 13.3747 36.9758 10.8195C39.1786 7.92959 41.9676 6.48462 45.3251 6.48462C48.5583 6.48462 50.9743 7.22472 52.5908 8.68731C54.2074 10.1499 55.0068 12.3702 55.0068 15.313C55.0068 18.432 54.1008 21.2691 52.2889 23.789C50.1926 26.7142 47.4569 28.1768 44.0994 28.1768ZM45.3251 10.2204C43.2644 10.2204 41.488 11.2072 40.0313 13.1984C38.6457 15.0487 37.9706 17.1104 37.9706 19.366C37.9706 20.8814 38.5746 22.1326 39.7648 23.0841C40.9195 24.0005 42.3584 24.4586 44.1171 24.4586C46.1601 24.4586 47.8477 23.4718 49.2156 21.4806C50.4591 19.6655 51.0809 17.6214 51.0809 15.313C51.0809 13.3923 50.6545 12.053 49.784 11.2953C48.9313 10.5728 47.4391 10.2204 45.3251 10.2204Z" fill="#902E40"/>
<path d="M69.5915 25.2339C69.5915 25.5159 69.5382 25.974 69.4494 26.5908C69.325 27.3309 68.9164 27.7009 68.1881 27.7009C67.7795 27.7009 67.3176 27.4719 66.8202 27.0137C64.5996 25.0225 62.0771 22.2383 59.288 18.6435C59.2525 20.1413 59.2347 21.0576 59.2347 21.3924C59.2347 21.8506 59.2525 22.5202 59.2703 23.4365C59.288 24.3528 59.3058 25.0225 59.3058 25.4806C59.3058 27.1723 58.8972 28.0181 58.0623 28.0181C57.6359 28.0181 57.2984 27.8948 57.0497 27.6305C56.8188 27.4014 56.7122 27.1194 56.7122 26.8022C56.7122 26.5732 56.7299 26.2207 56.7655 25.7626C56.801 25.3044 56.8188 24.952 56.8188 24.7229C56.8188 24.3881 56.8365 23.8771 56.8543 23.2074C56.872 22.5378 56.8898 22.0268 56.8898 21.692C56.8898 21.3219 56.8898 20.7933 56.8721 20.0532C56.8543 19.3307 56.8543 18.7844 56.8543 18.4144C56.8543 18.0619 56.8188 17.5509 56.7477 16.8813C56.6766 16.1941 56.6411 15.683 56.6411 15.3482C56.6411 15.0134 56.7832 14.6962 57.0852 14.4319C57.3872 14.1676 57.7247 14.0266 58.0978 14.0266C58.5242 14.0266 59.0038 14.3967 59.519 15.1191C62.1481 18.8373 64.7418 21.8682 67.2999 24.2119C67.2999 24.0357 67.2999 23.5951 67.2999 22.9079C67.2999 20.0884 67.2643 18.1677 67.211 17.1809C67.1933 17.0223 67.1577 16.7051 67.1044 16.2469C67.0512 15.8416 67.0156 15.5244 67.0156 15.2954C67.0156 14.5024 67.442 14.1147 68.2769 14.1147C69.2184 14.1147 69.6981 15.5597 69.6981 18.4496C69.6981 18.5201 69.6981 18.9606 69.6803 19.8065C69.6092 22.6964 69.5915 24.5114 69.5915 25.2339Z" fill="#F2F2F2"/>
<path d="M79.9306 16.3174C79.8062 16.3174 79.6996 16.2997 79.5575 16.2645C78.616 16.0178 77.71 15.8944 76.8218 15.8944C76.3954 15.8944 75.9158 15.9297 75.4184 16.0002C74.921 16.0707 74.388 16.1764 73.8373 16.3174C73.8373 17.0751 73.8195 18.2205 73.7663 19.7183C74.086 19.7007 75.223 19.595 77.1593 19.4011C78.2607 19.2954 78.9713 19.2425 79.2555 19.2425C79.593 19.2425 79.895 19.3483 80.126 19.5597C80.3569 19.7712 80.499 20.0531 80.499 20.4232C80.499 21.1104 80.126 21.4981 79.3976 21.5862C78.9357 21.6215 78.2429 21.6743 77.3192 21.7624C76.502 21.8505 75.2585 21.9739 73.6064 22.0972C73.5708 22.8197 73.5531 23.4189 73.5531 23.8594C73.5531 24.9872 73.6241 25.6215 73.7485 25.7801C73.8195 25.8506 74.1748 25.8859 74.8499 25.8859C75.2052 25.8859 75.7559 25.8859 76.4665 25.8682C77.1948 25.8506 77.7278 25.8506 78.0831 25.8506C78.2074 25.8506 78.3673 25.833 78.5982 25.7978C78.8292 25.7625 78.989 25.7449 79.0956 25.7449C79.4332 25.7449 79.7174 25.833 79.9483 26.0268C80.2148 26.2383 80.3569 26.5379 80.3569 26.9255C80.3569 27.5599 80.0194 27.9476 79.3443 28.0709C78.7581 28.1767 77.5679 28.2295 75.7381 28.2295C73.8551 28.2295 72.6293 27.9828 72.0431 27.4718C71.4213 26.9079 71.1016 25.7097 71.1016 23.8594C71.1016 23.084 71.1549 21.9386 71.2792 20.3879C71.4036 18.8372 71.4569 17.6918 71.4569 16.9341C71.4569 16.7403 71.4213 16.4407 71.368 16.0354C71.3147 15.6477 71.2792 15.3482 71.2792 15.1367C71.2792 14.2733 71.6878 13.8327 72.4872 13.8327C72.7359 13.8327 72.9846 13.9032 73.1978 14.0442C73.8728 13.8856 74.5124 13.7446 75.1164 13.6741C75.7204 13.586 76.2888 13.5508 76.8218 13.5508C78.2785 13.5508 79.4509 13.7094 80.3214 14.0442C80.8543 14.238 81.1208 14.6081 81.1208 15.1367C81.1208 15.4363 81.0142 15.7006 80.801 15.9297C80.5879 16.1764 80.3036 16.3174 79.9306 16.3174Z" fill="#F2F2F2"/>
<path d="M93.6803 26.8022C91.5308 27.5952 88.7951 28.0005 85.5086 28.0005C84.9579 28.0005 84.4605 27.7714 84.0164 27.3133C83.5723 26.8551 83.3591 26.3617 83.3591 25.833V11.2424C83.3236 10.6256 83.3058 9.99127 83.288 9.37451C83.2525 8.66965 83.288 8.07052 83.3591 7.57711C83.4835 6.71366 84.3006 6.18501 85.7929 6.00879C86.5034 5.81496 87.6581 5.70923 89.2925 5.70923C91.0334 5.70923 92.721 6.27312 94.3198 7.38328C96.2029 8.68727 97.1444 10.3085 97.1444 12.2644C97.1444 13.3217 96.949 14.2028 96.5582 14.9429C96.2562 15.5244 95.7233 16.1588 94.9594 16.8284C95.8654 17.2513 96.647 17.9033 97.3398 18.7844C98.1215 19.7536 98.5123 20.7228 98.5123 21.692C98.5123 22.9079 97.8372 24.0709 96.5049 25.1634C95.5989 25.8859 94.6574 26.4322 93.6803 26.8022ZM89.2747 9.445C88.0845 9.445 87.3561 9.46262 87.1252 9.48024L87.143 12.4054L87.1252 15.2954C87.9601 15.4011 88.5997 15.4363 89.026 15.3835C91.8506 15.172 93.2717 14.1323 93.2717 12.2821C93.2717 11.6301 92.8632 10.9957 92.0282 10.3966C91.1755 9.76219 90.2518 9.445 89.2747 9.445ZM90.909 19.1721C90.0741 19.1721 88.8128 19.1369 87.143 19.084V24.2295C88.7418 24.1414 90.4649 23.8418 92.3125 23.3132C93.9468 22.855 94.7462 22.3616 94.7284 21.833C94.6929 21.1281 94.1777 20.4937 93.1652 19.9474C92.3657 19.5069 91.6019 19.2602 90.909 19.1721Z" fill="#902E40"/>
<path d="M109.1 27.4365C108.78 27.4365 108.496 27.3131 108.247 27.0664C106.489 25.4452 104.57 24.2998 102.474 23.6831C102.545 25.3571 102.563 26.2734 102.563 26.4673C102.563 26.8021 102.438 27.0664 102.207 27.2955C101.976 27.5246 101.692 27.6303 101.337 27.6303C100.982 27.6303 100.697 27.5246 100.466 27.2955C100.235 27.0664 100.111 26.7845 100.111 26.4673C100.111 26.0444 100.111 25.3924 100.129 24.5289C100.147 23.6654 100.147 23.0311 100.147 22.5905L100.164 15.6476C100.164 15.2776 100.271 14.9428 100.502 14.6256C100.804 14.2379 101.212 14.0617 101.728 14.0969C103.131 14.2027 103.859 14.2555 103.895 14.2555C104.712 14.3613 105.387 14.5375 105.956 14.837C108.425 16.0706 109.651 17.6036 109.651 19.4186C109.651 20.1764 109.384 20.8284 108.869 21.4099C108.354 21.9914 107.572 22.4672 106.542 22.8725C108.07 23.7183 109.224 24.5818 110.006 25.4628C110.201 25.6919 110.308 25.9562 110.308 26.2206C110.308 26.5378 110.184 26.8197 109.935 27.0488C109.686 27.2779 109.437 27.4365 109.1 27.4365ZM103.54 16.6168C103.486 16.6168 103.149 16.5816 102.527 16.5463V21.1103C102.669 21.1103 102.794 21.1103 102.9 21.1103C104.321 21.1103 105.369 20.9341 106.044 20.5817C106.346 20.4407 106.613 20.2292 106.862 19.9825C107.11 19.7358 107.235 19.542 107.235 19.4186C107.235 18.7843 106.826 18.1499 106.009 17.5684C105.227 17.0397 104.392 16.7049 103.54 16.6168Z" fill="#F2F2F2"/>
<path d="M118.817 17.1633C118.533 17.1633 117.787 17.0752 116.543 16.9166C116.455 17.9739 116.419 19.366 116.419 21.1281V24.9873C117.183 24.9696 117.965 24.9697 118.764 24.9697C119.119 24.9697 119.403 25.093 119.634 25.3221C119.865 25.5512 119.972 25.8331 119.972 26.1503C119.972 26.4675 119.848 26.7494 119.617 26.9785C119.386 27.2076 119.084 27.3133 118.728 27.3133C118.391 27.3133 117.893 27.3133 117.236 27.3309C116.579 27.3486 116.081 27.3486 115.744 27.3486C115.353 27.3486 114.767 27.4014 113.985 27.5072C113.204 27.6129 112.617 27.6657 112.227 27.6657C111.871 27.6657 111.569 27.56 111.338 27.3309C111.107 27.1019 110.983 26.8375 110.983 26.5027C110.983 26.1855 111.107 25.9036 111.356 25.6745C111.605 25.4454 111.907 25.3221 112.28 25.3221C112.706 25.3221 113.257 25.2868 113.932 25.1987C113.914 24.5291 113.914 23.2251 113.914 21.3044C113.914 19.736 113.967 18.2558 114.092 16.8461L112.209 16.899C111.854 16.899 111.569 16.7932 111.338 16.5642C111.107 16.3351 110.983 16.0708 110.983 15.736C110.983 15.4011 111.09 15.1192 111.321 14.9077C111.534 14.7139 111.782 14.6082 112.084 14.5729C112.582 14.5201 113.435 14.5024 114.66 14.5024C115.762 14.5024 117.165 14.6258 118.906 14.8725C119.599 14.9782 119.936 15.3659 119.936 16.0531C119.936 16.4232 119.794 16.7051 119.528 16.9166C119.332 17.0752 119.084 17.1633 118.817 17.1633Z" fill="#F2F2F2"/>
<path d="M129.991 18.1853C129.476 18.1853 129.085 17.921 128.836 17.3747C128.712 17.1104 128.606 16.9694 128.481 16.9166C128.392 16.8813 128.161 16.8637 127.788 16.8637C127.06 16.8637 126.225 17.4276 125.266 18.5554C123.933 20.1237 123.258 21.6039 123.258 22.9608C123.258 23.5775 123.472 24.1238 123.898 24.5643C124.324 25.0049 124.822 25.2339 125.408 25.2339C125.976 25.2339 126.563 25.093 127.149 24.7934C127.362 24.6877 127.788 24.4057 128.463 23.9476C128.908 23.648 129.263 23.507 129.494 23.507C129.849 23.507 130.133 23.6304 130.382 23.8771C130.613 24.1062 130.72 24.3881 130.72 24.6877C130.72 25.0225 130.577 25.322 130.275 25.5687C128.677 26.908 127.06 27.56 125.426 27.56C124.129 27.56 123.027 27.0842 122.121 26.1503C121.269 25.2516 120.842 24.1766 120.842 22.9431C120.842 21.0224 121.695 19.0664 123.383 17.0575C124.822 15.3659 126.296 14.5024 127.806 14.5024C128.055 14.5024 128.286 14.5024 128.499 14.52C128.712 14.5376 128.89 14.5553 129.05 14.5905C129.298 14.3438 129.618 14.2205 129.973 14.2205C130.56 14.2205 130.933 14.5553 131.075 15.2249C131.181 15.7007 131.217 16.2646 131.217 16.9166C131.217 17.1985 131.128 17.4628 130.968 17.6919C130.72 18.0267 130.4 18.1853 129.991 18.1853Z" fill="#F2F2F2"/>
<path d="M134.823 23.5248V27.1548C134.823 27.4015 134.752 27.6482 134.61 27.8597C134.415 28.1592 134.113 28.3002 133.722 28.3002C133.26 28.3002 132.905 28.124 132.638 27.7539C132.443 27.472 132.336 27.1548 132.336 26.8376C132.336 25.5689 132.372 23.6481 132.46 21.093C132.549 18.5379 132.585 16.6347 132.585 15.3484C132.585 15.0312 132.709 14.7492 132.94 14.5202C133.171 14.2911 133.455 14.1677 133.811 14.1677C134.166 14.1677 134.45 14.2911 134.681 14.5202C134.912 14.7492 135.019 15.0312 135.019 15.3484C135.019 15.8594 135.001 16.5643 134.947 17.4453C134.876 18.4674 134.841 19.1722 134.841 19.5423C135.249 19.1722 136.742 17.5687 139.335 14.7669C139.602 14.4849 139.904 14.3439 140.259 14.3439C140.597 14.3439 140.881 14.4673 141.13 14.6964C141.378 14.9255 141.503 15.2074 141.503 15.5246C141.503 15.877 140.81 16.811 139.442 18.2912C138.429 19.3837 137.346 20.4762 136.227 21.5335C136.848 22.1327 137.488 22.7142 138.127 23.3133C138.873 23.9829 139.531 24.5468 140.117 24.9874C140.419 25.1988 140.739 25.3574 141.076 25.4631C141.698 25.657 142 26.027 142 26.5909C142 26.8376 141.929 27.0843 141.769 27.3134C141.556 27.6306 141.254 27.7716 140.881 27.7716C140.046 27.7716 138.98 27.2429 137.665 26.168C137.221 25.798 136.28 24.9345 134.823 23.5248Z" fill="#F2F2F2"/>
<defs>
<clipPath id="clip0_354_1648">
<rect width="31.4959" height="36" fill="white"/>
</clipPath>
</defs>
</svg>
