<svg width="209" height="53" viewBox="0 0 209 53" fill="none" xmlns="http://www.w3.org/2000/svg">
<g clip-path="url(#clip0_354_1884)">
<path d="M15.0143 8.76072C15.6007 9.42246 19.1813 13.3566 23.3707 12.7899C25.443 12.51 27.6203 11.133 28.7192 10.4401C29.8835 9.70409 30.7795 8.97151 31.3935 8.42554V16.4839C30.8483 17.0316 27.9488 19.8392 23.3724 19.8409C18.5054 19.8444 15.4993 16.6739 15.016 16.1469V8.759L15.0143 8.76072Z" stroke="#F2F2F2" stroke-width="2" stroke-miterlimit="10"/>
<path d="M23.51 12.7744C28.6653 11.7767 32.0027 9.50745 31.9385 7.45212C31.89 5.92559 29.9697 4.76871 28.9047 4.12696C25.2724 1.93642 21.3469 2.89307 20.4762 3.12924C19.9714 3.26614 14.9011 4.6917 14.745 7.12011C14.6114 9.1977 18.1015 11.6672 23.51 12.7744Z" stroke="#F2F2F2" stroke-width="2" stroke-miterlimit="10"/>
<path d="M10.267 11.4153C7.66303 12.6546 5.06084 13.894 2.45691 15.1333V38.3041L22.9585 51.9127L45.3159 39.5625V15.7815C42.8543 14.5491 40.3927 13.3184 37.9311 12.0859" stroke="#F2F2F2" stroke-width="2" stroke-miterlimit="10"/>
<path d="M2.45691 15.2205L22.9309 27.384V51.9128" stroke="#F2F2F2" stroke-width="2" stroke-miterlimit="10"/>
<path d="M22.9309 27.4513L45.3158 15.7642" stroke="#F2F2F2" stroke-width="2" stroke-miterlimit="10"/>
<path d="M14.8492 16.3084C15.3578 16.8123 18.9975 20.308 24.3543 19.7886C28.1874 19.4177 30.6446 17.2108 31.3935 16.481V9.57921C30.8623 9.88979 30.0752 10.3281 29.0982 10.806C26.1446 12.2467 24.6696 12.9801 23.1196 13.037C18.6805 13.2026 14.7413 8.69751 14.7413 8.69751C14.7778 11.2339 14.8127 13.7703 14.8492 16.3084Z" fill="#902E40" stroke="#F2F2F2" stroke-width="2" stroke-miterlimit="10"/>
<path d="M3.15314 16.3076L22.6579 27.4269V50.8256L2.45691 37.9946L3.15314 16.3076Z" fill="#902E40" stroke="#F2F2F2" stroke-width="2" stroke-miterlimit="10"/>
</g>
<path d="M64.5963 41.4825C60.589 41.4825 57.1802 40.341 54.3439 38.0321C51.3254 35.5676 49.8422 32.4025 49.8422 28.4852C49.8422 23.8933 51.2733 19.6905 54.1617 15.9288C57.3884 11.6742 61.4737 9.54688 66.3918 9.54688C71.1276 9.54688 74.6665 10.6365 77.0345 12.7897C79.4024 14.943 80.5734 18.2118 80.5734 22.5442C80.5734 27.1361 79.2463 31.3129 76.5921 35.0228C73.5216 39.3293 69.5143 41.4825 64.5963 41.4825ZM66.3918 15.0468C63.3733 15.0468 60.7711 16.4996 58.6374 19.4311C56.6077 22.1551 55.6189 25.1904 55.6189 28.5111C55.6189 30.7422 56.5036 32.5841 58.2471 33.985C59.9385 35.3341 62.0462 36.0086 64.6223 36.0086C67.6148 36.0086 70.0868 34.5558 72.0904 31.6242C73.9119 28.9521 74.8227 25.9428 74.8227 22.5442C74.8227 19.7165 74.1982 17.7448 72.9231 16.6293C71.6741 15.5656 69.4883 15.0468 66.3918 15.0468Z" fill="#902E40"/>
<path d="M101.937 37.15C101.937 37.5651 101.859 38.2396 101.729 39.1476C101.547 40.2372 100.948 40.782 99.8812 40.782C99.2827 40.782 98.6061 40.4448 97.8775 39.7703C94.6249 36.8387 90.9298 32.7398 86.8445 27.4474C86.7924 29.6526 86.7664 31.0016 86.7664 31.4945C86.7664 32.169 86.7924 33.1548 86.8184 34.5039C86.8445 35.8529 86.8705 36.8387 86.8705 37.5132C86.8705 40.0038 86.272 41.249 85.049 41.249C84.4245 41.249 83.9301 41.0674 83.5658 40.6783C83.2275 40.341 83.0714 39.9259 83.0714 39.459C83.0714 39.1217 83.0974 38.6028 83.1494 37.9283C83.2015 37.2538 83.2275 36.735 83.2275 36.3977C83.2275 35.9048 83.2535 35.1524 83.2795 34.1666C83.3056 33.1808 83.3316 32.4284 83.3316 31.9355C83.3316 31.3907 83.3316 30.6124 83.3056 29.5228C83.2795 28.4592 83.2795 27.655 83.2795 27.1102C83.2795 26.5913 83.2275 25.839 83.1234 24.8531C83.0193 23.8414 82.9673 23.089 82.9673 22.5961C82.9673 22.1032 83.1755 21.6362 83.6178 21.2471C84.0602 20.8579 84.5546 20.6504 85.101 20.6504C85.7255 20.6504 86.4281 21.1952 87.1827 22.2588C91.0339 27.7328 94.833 32.195 98.5801 35.6454C98.5801 35.3859 98.5801 34.7374 98.5801 33.7256C98.5801 29.5747 98.5281 26.747 98.45 25.2942C98.424 25.0607 98.3719 24.5937 98.2939 23.9192C98.2158 23.3225 98.1638 22.8555 98.1638 22.5183C98.1638 21.3508 98.7883 20.7801 100.011 20.7801C101.39 20.7801 102.093 22.9074 102.093 27.162C102.093 27.2658 102.093 27.9144 102.067 29.1596C101.963 33.4143 101.937 36.0864 101.937 37.15Z" fill="#F2F2F2"/>
<path d="M117.081 24.023C116.899 24.023 116.743 23.997 116.535 23.9451C115.156 23.5819 113.829 23.4004 112.528 23.4004C111.903 23.4004 111.201 23.4522 110.472 23.556C109.743 23.6598 108.963 23.8154 108.156 24.023C108.156 25.1385 108.13 26.8248 108.052 29.03C108.52 29.004 110.186 28.8484 113.022 28.563C114.635 28.4073 115.676 28.3295 116.093 28.3295C116.587 28.3295 117.029 28.4851 117.368 28.7965C117.706 29.1078 117.914 29.5229 117.914 30.0677C117.914 31.0794 117.368 31.6502 116.301 31.7799C115.624 31.8318 114.609 31.9096 113.256 32.0393C112.059 32.169 110.238 32.3506 107.818 32.5322C107.766 33.5959 107.74 34.478 107.74 35.1265C107.74 36.7869 107.844 37.7208 108.026 37.9543C108.13 38.0581 108.651 38.11 109.639 38.11C110.16 38.11 110.966 38.1099 112.007 38.084C113.074 38.0581 113.855 38.0581 114.375 38.0581C114.557 38.0581 114.792 38.0321 115.13 37.9802C115.468 37.9284 115.702 37.9024 115.858 37.9024C116.353 37.9024 116.769 38.0321 117.107 38.3175C117.498 38.6288 117.706 39.0698 117.706 39.6406C117.706 40.5745 117.212 41.1453 116.223 41.3269C115.364 41.4825 113.621 41.5604 110.94 41.5604C108.182 41.5604 106.387 41.1971 105.528 40.4448C104.617 39.6146 104.149 37.8505 104.149 35.1265C104.149 33.985 104.227 32.2988 104.409 30.0158C104.591 27.7328 104.669 26.0465 104.669 24.931C104.669 24.6456 104.617 24.2046 104.539 23.6079C104.461 23.0371 104.409 22.5961 104.409 22.2848C104.409 21.0136 105.008 20.365 106.178 20.365C106.543 20.365 106.907 20.4688 107.219 20.6764C108.208 20.4429 109.145 20.2353 110.03 20.1316C110.914 20.0018 111.747 19.95 112.528 19.95C114.661 19.95 116.379 20.1834 117.654 20.6764C118.435 20.9617 118.825 21.5065 118.825 22.2848C118.825 22.7258 118.669 23.115 118.356 23.4522C118.044 23.8154 117.628 24.023 117.081 24.023Z" fill="#F2F2F2"/>
<path d="M137.222 39.4589C134.073 40.6263 130.066 41.223 125.252 41.223C124.445 41.223 123.717 40.8857 123.066 40.2112C122.416 39.5367 122.103 38.8103 122.103 38.032V16.5513C122.051 15.6433 122.025 14.7094 121.999 13.8014C121.947 12.7637 121.999 11.8816 122.103 11.1552C122.286 9.88401 123.483 9.10573 125.668 8.8463C126.709 8.56093 128.401 8.40527 130.795 8.40527C133.345 8.40527 135.817 9.23544 138.159 10.8698C140.917 12.7896 142.296 15.1764 142.296 18.056C142.296 19.6126 142.01 20.9097 141.437 21.9993C140.995 22.8554 140.214 23.7894 139.095 24.7752C140.423 25.3978 141.567 26.3577 142.582 27.6549C143.727 29.0817 144.3 30.5086 144.3 31.9354C144.3 33.7255 143.311 35.4377 141.359 37.0462C140.032 38.1098 138.653 38.9141 137.222 39.4589ZM130.769 13.9052C129.025 13.9052 127.958 13.9311 127.62 13.957L127.646 18.2636L127.62 22.5182C128.843 22.6738 129.78 22.7257 130.404 22.6479C134.542 22.3366 136.623 20.806 136.623 18.082C136.623 17.1221 136.025 16.1881 134.802 15.3061C133.553 14.3721 132.2 13.9052 130.769 13.9052ZM133.163 28.2256C131.94 28.2256 130.092 28.1737 127.646 28.0959V35.6712C129.988 35.5415 132.512 35.1005 135.218 34.3222C137.612 33.6477 138.783 32.9213 138.757 32.143C138.705 31.1053 137.951 30.1713 136.467 29.3671C135.296 28.7185 134.177 28.3553 133.163 28.2256Z" fill="#902E40"/>
<path d="M159.808 40.3928C159.34 40.3928 158.924 40.2112 158.559 39.848C155.983 37.4612 153.173 35.775 150.102 34.867C150.207 37.3315 150.233 38.6806 150.233 38.9659C150.233 39.4588 150.05 39.848 149.712 40.1852C149.374 40.5225 148.957 40.6782 148.437 40.6782C147.917 40.6782 147.5 40.5225 147.162 40.1852C146.824 39.848 146.642 39.4329 146.642 38.9659C146.642 38.3433 146.642 37.3834 146.668 36.1122C146.694 34.841 146.694 33.9071 146.694 33.2585L146.72 23.037C146.72 22.4922 146.876 21.9993 147.214 21.5323C147.656 20.9616 148.255 20.7022 149.01 20.754C151.065 20.9097 152.132 20.9875 152.184 20.9875C153.381 21.1432 154.37 21.4026 155.203 21.8436C158.82 23.6596 160.615 25.9167 160.615 28.5888C160.615 29.7043 160.225 30.6642 159.47 31.5203C158.716 32.3764 157.571 33.0769 156.061 33.6736C158.299 34.9188 159.991 36.19 161.135 37.4872C161.422 37.8244 161.578 38.2136 161.578 38.6027C161.578 39.0697 161.396 39.4848 161.031 39.822C160.667 40.1593 160.303 40.3928 159.808 40.3928ZM151.664 24.4639C151.586 24.4639 151.091 24.412 150.181 24.3601V31.0793C150.389 31.0793 150.571 31.0793 150.727 31.0793C152.809 31.0793 154.344 30.8199 155.333 30.301C155.775 30.0935 156.165 29.7822 156.53 29.419C156.894 29.0558 157.076 28.7704 157.076 28.5888C157.076 27.6548 156.478 26.7209 155.281 25.8648C154.136 25.0865 152.913 24.5936 151.664 24.4639Z" fill="#F2F2F2"/>
<path d="M174.042 25.2682C173.626 25.2682 172.533 25.1385 170.711 24.905C170.581 26.4616 170.529 28.5111 170.529 31.1053V36.7868C171.648 36.7609 172.793 36.7609 173.964 36.7609C174.485 36.7609 174.901 36.9425 175.239 37.2797C175.577 37.617 175.734 38.0321 175.734 38.4991C175.734 38.966 175.551 39.3811 175.213 39.7184C174.875 40.0556 174.433 40.2113 173.912 40.2113C173.418 40.2113 172.689 40.2113 171.726 40.2372C170.763 40.2632 170.035 40.2632 169.541 40.2632C168.968 40.2632 168.109 40.341 166.964 40.4967C165.819 40.6523 164.961 40.7301 164.388 40.7301C163.868 40.7301 163.425 40.5745 163.087 40.2372C162.749 39.9 162.567 39.5108 162.567 39.0179C162.567 38.5509 162.749 38.1359 163.113 37.7986C163.478 37.4613 163.92 37.2797 164.466 37.2797C165.091 37.2797 165.898 37.2279 166.886 37.0981C166.86 36.1123 166.86 34.1925 166.86 31.3648C166.86 29.0559 166.938 26.8767 167.121 24.8012L164.362 24.8791C163.842 24.8791 163.425 24.7234 163.087 24.3861C162.749 24.0489 162.567 23.6597 162.567 23.1668C162.567 22.6739 162.723 22.2588 163.061 21.9475C163.373 21.6621 163.738 21.5065 164.18 21.4546C164.909 21.3768 166.158 21.3508 167.953 21.3508C169.567 21.3508 171.622 21.5324 174.172 21.8956C175.187 22.0513 175.682 22.622 175.682 23.6338C175.682 24.1786 175.473 24.5937 175.083 24.905C174.797 25.1385 174.433 25.2682 174.042 25.2682Z" fill="#F2F2F2"/>
<path d="M190.41 26.7729C189.655 26.7729 189.083 26.3838 188.718 25.5796C188.536 25.1904 188.38 24.9829 188.198 24.905C188.068 24.8532 187.729 24.8272 187.183 24.8272C186.116 24.8272 184.893 25.6574 183.488 27.3177C181.536 29.6266 180.548 31.8058 180.548 33.8034C180.548 34.7114 180.86 35.5157 181.484 36.1642C182.109 36.8128 182.837 37.1501 183.696 37.1501C184.529 37.1501 185.387 36.9425 186.246 36.5015C186.558 36.3458 187.183 35.9308 188.172 35.2562C188.822 34.8152 189.343 34.6077 189.681 34.6077C190.201 34.6077 190.618 34.7893 190.982 35.1525C191.32 35.4897 191.476 35.9048 191.476 36.3458C191.476 36.8388 191.268 37.2798 190.826 37.643C188.484 39.6146 186.116 40.5745 183.722 40.5745C181.823 40.5745 180.209 39.8741 178.882 38.4991C177.633 37.176 177.009 35.5935 177.009 33.7775C177.009 30.9497 178.258 28.0701 180.73 25.1126C182.837 22.6221 184.997 21.3509 187.209 21.3509C187.573 21.3509 187.912 21.3509 188.224 21.3768C188.536 21.4028 188.796 21.4287 189.03 21.4806C189.395 21.1174 189.863 20.9358 190.384 20.9358C191.242 20.9358 191.789 21.4287 191.997 22.4145C192.153 23.115 192.205 23.9452 192.205 24.905C192.205 25.3201 192.075 25.7093 191.841 26.0465C191.476 26.5394 191.008 26.7729 190.41 26.7729Z" fill="#F2F2F2"/>
<path d="M197.487 34.6336V39.9778C197.487 40.341 197.383 40.7042 197.175 41.0155C196.889 41.4565 196.446 41.6641 195.874 41.6641C195.197 41.6641 194.677 41.4046 194.287 40.8598C194 40.4448 193.844 39.9778 193.844 39.5108C193.844 37.6429 193.896 34.8152 194.027 31.0535C194.157 27.2917 194.209 24.4899 194.209 22.5961C194.209 22.1291 194.391 21.714 194.729 21.3768C195.067 21.0395 195.484 20.8579 196.004 20.8579C196.525 20.8579 196.941 21.0395 197.279 21.3768C197.617 21.714 197.774 22.1291 197.774 22.5961C197.774 23.3484 197.748 24.3861 197.67 25.6833C197.565 27.188 197.513 28.2257 197.513 28.7705C198.112 28.2257 200.298 25.8649 204.097 21.74C204.487 21.3249 204.929 21.1173 205.45 21.1173C205.944 21.1173 206.361 21.2989 206.725 21.6362C207.089 21.9735 207.271 22.3885 207.271 22.8555C207.271 23.3744 206.257 24.7493 204.253 26.9285C202.77 28.537 201.182 30.1455 199.543 31.702C200.454 32.5841 201.391 33.4402 202.327 34.3222C203.42 35.3081 204.383 36.1382 205.242 36.7868C205.684 37.0981 206.152 37.3316 206.647 37.4873C207.558 37.7726 208 38.3174 208 39.1476C208 39.5108 207.896 39.874 207.662 40.2113C207.349 40.6782 206.907 40.8858 206.361 40.8858C205.138 40.8858 203.576 40.1075 201.651 38.525C201 37.9802 199.621 36.709 197.487 34.6336Z" fill="#F2F2F2"/>
<defs>
<clipPath id="clip0_354_1884">
<rect width="46.1348" height="53" fill="white"/>
</clipPath>
</defs>
</svg>
