<svg width="573" height="353" viewBox="0 0 573 353" fill="none" xmlns="http://www.w3.org/2000/svg">
<path d="M2 273.5V290L73 350.5V333.5L2 273.5Z" stroke="#D0C6A2" stroke-width="4" stroke-linejoin="round"/>
<path d="M571 45L73.5 333.5V350.5L571 59.5V45Z" stroke="#D0C6A2" stroke-width="4" stroke-linejoin="round"/>
<path d="M571 45L550 32.5M514 11L530 20.5M484 11L470.5 18.5" stroke="#D0C6A2" stroke-width="4" stroke-linecap="round" stroke-linejoin="round"/>
<path d="M449 30L434 38" stroke="#D0C6A2" stroke-width="4" stroke-linecap="round" stroke-linejoin="round"/>
<path d="M412 50L395 60" stroke="#D0C6A2" stroke-width="4" stroke-linecap="round" stroke-linejoin="round"/>
<path d="M373 71L356 81" stroke="#D0C6A2" stroke-width="4" stroke-linecap="round" stroke-linejoin="round"/>
<path d="M335 93L318 103" stroke="#D0C6A2" stroke-width="4" stroke-linecap="round" stroke-linejoin="round"/>
<path d="M293 116L277 124" stroke="#D0C6A2" stroke-width="4" stroke-linecap="round" stroke-linejoin="round"/>
<path d="M252 137L232 148" stroke="#D0C6A2" stroke-width="4" stroke-linecap="round" stroke-linejoin="round"/>
<path d="M208 161L186 173" stroke="#D0C6A2" stroke-width="4" stroke-linecap="round" stroke-linejoin="round"/>
<path d="M165 186L142 198" stroke="#D0C6A2" stroke-width="4" stroke-linecap="round" stroke-linejoin="round"/>
<path d="M121 209L92 224" stroke="#D0C6A2" stroke-width="4" stroke-linecap="round" stroke-linejoin="round"/>
<path d="M74 235L43 251" stroke="#D0C6A2" stroke-width="4" stroke-linecap="round" stroke-linejoin="round"/>
<path d="M25 261L2 273" stroke="#D0C6A2" stroke-width="4" stroke-linecap="round" stroke-linejoin="round"/>
<path d="M24.0001 269V277.5C37.5001 291 56.5001 281 60.5001 275.5C60.5001 272.5 60.5001 269.5 60.0001 264M24.0001 269C29.0001 277.5 55.5 281 60.0001 264M24.0001 269C20 253.5 57 241.5 60.0001 264" stroke="#D0C6A2" stroke-width="4" stroke-linecap="round" stroke-linejoin="round"/>
<path d="M61.302 299.425V307.925C74.802 321.425 93.802 311.425 97.802 305.925C97.802 302.925 97.802 299.925 97.302 294.425M61.302 299.425C66.302 307.925 92.8019 311.425 97.302 294.425M61.302 299.425C57.3019 283.925 94.3019 271.925 97.302 294.425" stroke="#D0C6A2" stroke-width="4" stroke-linecap="round" stroke-linejoin="round"/>
<path d="M73.302 241.425V249.925C86.802 263.425 105.802 253.425 109.802 247.925C109.802 244.925 109.802 241.925 109.302 236.425M73.302 241.425C78.302 249.925 104.802 253.425 109.302 236.425M73.302 241.425C69.3019 225.925 106.302 213.925 109.302 236.425" stroke="#D0C6A2" stroke-width="4" stroke-linecap="round" stroke-linejoin="round"/>
<path d="M110.302 271.425V279.925C123.802 293.425 142.802 283.425 146.802 277.925C146.802 274.925 146.802 271.925 146.302 266.425M110.302 271.425C115.302 279.925 141.802 283.425 146.302 266.425M110.302 271.425C106.302 255.925 143.302 243.925 146.302 266.425" stroke="#D0C6A2" stroke-width="4" stroke-linecap="round" stroke-linejoin="round"/>
<path d="M157.302 244.425V252.925C170.802 266.425 189.802 256.425 193.802 250.925C193.802 247.925 193.802 244.925 193.302 239.425M157.302 244.425C162.302 252.925 188.802 256.425 193.302 239.425M157.302 244.425C153.302 228.925 190.302 216.925 193.302 239.425" stroke="#D0C6A2" stroke-width="4" stroke-linecap="round" stroke-linejoin="round"/>
<path d="M120.302 215.425V223.925C133.802 237.425 152.802 227.425 156.802 221.925C156.802 218.925 156.802 215.925 156.302 210.425M120.302 215.425C125.302 223.925 151.802 227.425 156.302 210.425M120.302 215.425C116.302 199.925 153.302 187.925 156.302 210.425" stroke="#D0C6A2" stroke-width="4" stroke-linecap="round" stroke-linejoin="round"/>
<path d="M165.302 190.425V198.925C178.802 212.425 197.802 202.425 201.802 196.925C201.802 193.925 201.802 190.925 201.302 185.425M165.302 190.425C170.302 198.925 196.802 202.425 201.302 185.425M165.302 190.425C161.302 174.925 198.302 162.925 201.302 185.425" stroke="#D0C6A2" stroke-width="4" stroke-linecap="round" stroke-linejoin="round"/>
<path d="M203.302 218.425V226.925C216.802 240.425 235.802 230.425 239.802 224.925C239.802 221.925 239.802 218.925 239.302 213.425M203.302 218.425C208.302 226.925 234.802 230.425 239.302 213.425M203.302 218.425C199.302 202.925 236.302 190.925 239.302 213.425" stroke="#D0C6A2" stroke-width="4" stroke-linecap="round" stroke-linejoin="round"/>
<path d="M248.302 192.425V200.925C261.802 214.425 280.802 204.425 284.802 198.925C284.802 195.925 284.802 192.925 284.302 187.425M248.302 192.425C253.302 200.925 279.802 204.425 284.302 187.425M248.302 192.425C244.302 176.925 281.302 164.925 284.302 187.425" stroke="#D0C6A2" stroke-width="4" stroke-linecap="round" stroke-linejoin="round"/>
<path d="M208.302 165.425V173.925C221.802 187.425 240.802 177.425 244.802 171.925C244.802 168.925 244.802 165.925 244.302 160.425M208.302 165.425C213.302 173.925 239.802 177.425 244.302 160.425M208.302 165.425C204.302 149.925 241.302 137.925 244.302 160.425" stroke="#D0C6A2" stroke-width="4" stroke-linecap="round" stroke-linejoin="round"/>
<path d="M291.302 168.425V176.925C304.802 190.425 323.802 180.425 327.802 174.925C327.802 171.925 327.802 168.925 327.302 163.425M291.302 168.425C296.302 176.925 322.802 180.425 327.302 163.425M291.302 168.425C287.302 152.925 324.302 140.925 327.302 163.425" stroke="#D0C6A2" stroke-width="4" stroke-linecap="round" stroke-linejoin="round"/>
<path d="M252.302 141.425V149.925C265.802 163.425 284.802 153.425 288.802 147.925C288.802 144.925 288.802 141.925 288.302 136.425M252.302 141.425C257.302 149.925 283.802 153.425 288.302 136.425M252.302 141.425C248.302 125.925 285.302 113.925 288.302 136.425" stroke="#D0C6A2" stroke-width="4" stroke-linecap="round" stroke-linejoin="round"/>
<path d="M332.302 143.425V151.925C345.802 165.425 364.802 155.425 368.802 149.925C368.802 146.925 368.802 143.925 368.302 138.425M332.302 143.425C337.302 151.925 363.802 155.425 368.302 138.425M332.302 143.425C328.302 127.925 365.302 115.925 368.302 138.425" stroke="#D0C6A2" stroke-width="4" stroke-linecap="round" stroke-linejoin="round"/>
<path d="M293.287 119.531V127.594C306.126 140.402 324.196 130.915 328 125.697C328 122.851 328 120.005 327.524 114.787M293.287 119.531C298.042 127.594 323.245 130.915 327.524 114.787M293.287 119.531C289.483 104.826 324.671 93.4416 327.524 114.787" stroke="#D0C6A2" stroke-width="4" stroke-linecap="round" stroke-linejoin="round"/>
<path d="M335.279 96.9974V104.801C347.751 117.195 365.305 108.014 369 102.965C369 100.211 369 97.4564 368.538 92.4069M335.279 96.9974C339.898 104.801 364.381 108.014 368.538 92.4069M335.279 96.9974C331.584 82.7671 365.766 71.7499 368.538 92.4069" stroke="#D0C6A2" stroke-width="4" stroke-linecap="round" stroke-linejoin="round"/>
<path d="M373.287 121.531V129.594C386.126 142.402 404.196 132.915 408 127.697C408 124.851 408 122.005 407.524 116.787M373.287 121.531C378.042 129.594 403.245 132.915 407.524 116.787M373.287 121.531C369.483 106.826 404.671 95.4416 407.524 116.787" stroke="#D0C6A2" stroke-width="4" stroke-linecap="round" stroke-linejoin="round"/>
<path d="M412.263 98.9309V106.214C424.001 117.782 440.522 109.213 444 104.501C444 101.93 444 99.3593 443.565 94.6465M412.263 98.9309C416.61 106.214 439.652 109.213 443.565 94.6465M412.263 98.9309C408.784 85.6493 440.957 75.3666 443.565 94.6465" stroke="#D0C6A2" stroke-width="4" stroke-linecap="round" stroke-linejoin="round"/>
<path d="M373.271 75.9974V83.8011C385.376 96.1952 402.413 87.0144 406 81.9649C406 79.2107 406 76.4564 405.552 71.4069M373.271 75.9974C377.754 83.8011 401.516 87.0145 405.552 71.4069M373.271 75.9974C369.684 61.7671 402.861 50.7499 405.552 71.4069" stroke="#D0C6A2" stroke-width="4" stroke-linecap="round" stroke-linejoin="round"/>
<path d="M412.271 53.9974V61.8011C424.376 74.1952 441.413 65.0144 445 59.9649C445 57.2107 445 54.4564 444.552 49.4069M412.271 53.9974C416.754 61.8011 440.516 65.0145 444.552 49.4069M412.271 53.9974C408.684 39.7671 441.861 28.7499 444.552 49.4069" stroke="#D0C6A2" stroke-width="4" stroke-linecap="round" stroke-linejoin="round"/>
<path d="M449.271 77.9974V85.8011C461.376 98.1952 478.413 89.0144 482 83.9649C482 81.2107 482 78.4564 481.552 73.4069M449.271 77.9974C453.754 85.8011 477.516 89.0145 481.552 73.4069M449.271 77.9974C445.684 63.7671 478.861 52.7499 481.552 73.4069" stroke="#D0C6A2" stroke-width="4" stroke-linecap="round" stroke-linejoin="round"/>
<path d="M449.271 34.9974V42.8011C461.376 55.1952 478.413 46.0144 482 40.9649C482 38.2107 482 35.4564 481.552 30.4069M449.271 34.9974C453.754 42.8011 477.516 46.0145 481.552 30.4069M449.271 34.9974C445.684 20.7671 478.861 9.7499 481.552 30.4069" stroke="#D0C6A2" stroke-width="4" stroke-linecap="round" stroke-linejoin="round"/>
<path d="M486.271 56.9974V64.8011C498.376 77.1952 515.413 68.0144 519 62.9649C519 60.2107 519 57.4564 518.552 52.4069M486.271 56.9974C490.754 64.8011 514.516 68.0145 518.552 52.4069M486.271 56.9974C482.684 42.7671 515.861 31.7499 518.552 52.4069" stroke="#D0C6A2" stroke-width="4" stroke-linecap="round" stroke-linejoin="round"/>
<path d="M484.246 16.3976V23.421C495.251 34.5757 510.739 26.3129 514 21.7684C514 19.2896 514 16.8108 513.592 12.2662M484.246 16.3976C488.322 23.421 509.924 26.313 513.592 12.2662M484.246 16.3976C480.985 3.59042 511.147 -6.32509 513.592 12.2662" stroke="#D0C6A2" stroke-width="4" stroke-linecap="round" stroke-linejoin="round"/>
<path d="M519.254 34.9309V42.2143C530.626 53.7822 546.631 45.2134 550 40.5006C550 37.9299 550 35.3593 549.579 30.6465M519.254 34.9309C523.466 42.2143 545.788 45.2135 549.579 30.6465M519.254 34.9309C515.885 21.6493 547.052 11.3666 549.579 30.6465" stroke="#D0C6A2" stroke-width="4" stroke-linecap="round" stroke-linejoin="round"/>
</svg>
