<svg width="191" height="142" viewBox="0 0 191 142" fill="none" xmlns="http://www.w3.org/2000/svg">
<g id="LEGO#14" clip-path="url(#clip0_340_1267)">
<path id="Vector" d="M0.5 57.2201V99.3701L51.5 141.13L190.5 82.1301V40.8101L50.5 99.1301L0.5 57.2201Z" stroke="#D0C6A2" stroke-width="4" stroke-miterlimit="10"/>
<path id="Vector_2" d="M50.5 99.1299L51.5 141.13" stroke="#D0C6A2" stroke-width="4" stroke-miterlimit="10"/>
<path id="Vector_3" d="M17.5101 51.6399C17.5101 51.6399 16.8501 60.9199 30.1001 60.2599C43.3601 59.5999 43.9601 51.6399 43.9601 51.6399C43.9601 51.6399 40.6401 44.5499 30.7301 44.7799C20.8201 45.0099 17.5101 51.6399 17.5101 51.6399Z" stroke="#D0C6A2" stroke-width="4" stroke-miterlimit="10"/>
<path id="Vector_4" d="M43.96 51.6399V63.6199C43.96 63.6199 42.3 68.8699 30.73 69.0399C19.16 69.2099 17.5 63.7399 17.5 63.7399V51.6499" stroke="#D0C6A2" stroke-width="4" stroke-miterlimit="10"/>
<path id="Vector_5" d="M53.42 36.76C53.42 36.76 52.76 46.04 66.01 45.38C79.27 44.72 79.87 36.76 79.87 36.76C79.87 36.76 76.55 29.67 66.64 29.9C56.73 30.13 53.42 36.76 53.42 36.76Z" stroke="#D0C6A2" stroke-width="4" stroke-miterlimit="10"/>
<path id="Vector_6" d="M79.8701 36.76V48.74C79.8701 48.74 78.2101 53.99 66.6401 54.16C55.0701 54.33 53.4101 48.86 53.4101 48.86V36.77L33.3101 44.79" stroke="#D0C6A2" stroke-width="4" stroke-miterlimit="10"/>
<path id="Vector_7" d="M43.42 72.76C43.42 72.76 42.76 82.04 56.01 81.38C69.27 80.72 69.87 72.76 69.87 72.76C69.87 72.76 66.55 65.67 56.64 65.9C46.73 66.13 43.42 72.76 43.42 72.76Z" stroke="#D0C6A2" stroke-width="4" stroke-miterlimit="10"/>
<path id="Vector_8" d="M69.87 72.76V84.74C69.87 84.74 68.21 89.99 56.64 90.16C45.07 90.33 43.41 84.86 43.41 84.86V72.77" stroke="#D0C6A2" stroke-width="4" stroke-miterlimit="10"/>
<path id="Vector_9" d="M79.71 58.1599C79.71 58.1599 79.05 67.4399 92.3 66.7799C105.56 66.1199 106.16 58.1599 106.16 58.1599C106.16 58.1599 102.84 51.0699 92.93 51.2999C83.02 51.5299 79.71 58.1599 79.71 58.1599Z" stroke="#D0C6A2" stroke-width="4" stroke-miterlimit="10"/>
<path id="Vector_10" d="M106.16 58.1599V70.1399C106.16 70.1399 104.5 75.3899 92.93 75.5599C81.36 75.7299 79.7 70.2599 79.7 70.2599V58.1699" stroke="#D0C6A2" stroke-width="4" stroke-miterlimit="10"/>
<path id="Vector_11" d="M88.08 23.23C88.08 23.23 87.42 32.51 100.67 31.85C113.93 31.19 114.53 23.23 114.53 23.23C114.53 23.23 111.21 16.14 101.3 16.37C91.39 16.6 88.08 23.23 88.08 23.23Z" stroke="#D0C6A2" stroke-width="4" stroke-miterlimit="10"/>
<path id="Vector_12" d="M114.53 23.23V35.21C114.53 35.21 112.87 40.46 101.3 40.63C89.73 40.8 88.07 35.33 88.07 35.33V23.24" stroke="#D0C6A2" stroke-width="4" stroke-miterlimit="10"/>
<path id="Vector_13" d="M114.08 43.23C114.08 43.23 113.42 52.51 126.67 51.85C139.93 51.19 140.53 43.23 140.53 43.23C140.53 43.23 137.21 36.14 127.3 36.37C117.39 36.6 114.08 43.23 114.08 43.23Z" stroke="#D0C6A2" stroke-width="4" stroke-miterlimit="10"/>
<path id="Vector_14" d="M140.53 43.23V55.21C140.53 55.21 138.87 60.46 127.3 60.63C115.73 60.8 114.07 55.33 114.07 55.33V43.24" stroke="#D0C6A2" stroke-width="4" stroke-miterlimit="10"/>
<path id="Vector_15" d="M123.08 9.22998C123.08 9.22998 122.42 18.51 135.67 17.85C148.93 17.19 149.53 9.22998 149.53 9.22998C149.53 9.22998 146.21 2.13998 136.3 2.36998C126.39 2.59998 123.08 9.22998 123.08 9.22998Z" stroke="#D0C6A2" stroke-width="4" stroke-miterlimit="10"/>
<path id="Vector_16" d="M168.22 23.23L149.53 9.22998V21.21C149.53 21.21 147.87 26.46 136.3 26.63C124.73 26.8 123.07 21.33 123.07 21.33V9.23998" stroke="#D0C6A2" stroke-width="4" stroke-miterlimit="10"/>
<path id="Vector_17" d="M149.08 29.23C149.08 29.23 148.42 38.51 161.67 37.85C174.93 37.19 175.53 29.23 175.53 29.23C175.53 29.23 172.21 22.14 162.3 22.37C152.39 22.6 149.08 29.23 149.08 29.23Z" stroke="#D0C6A2" stroke-width="4" stroke-miterlimit="10"/>
<path id="Vector_18" d="M175.53 29.23V41.21C175.53 41.21 173.87 46.46 162.3 46.63C150.73 46.8 149.07 41.33 149.07 41.33V29.24" stroke="#D0C6A2" stroke-width="4" stroke-miterlimit="10"/>
<path id="Vector_19" d="M190.5 40.8099L174.87 28.1399" stroke="#D0C6A2" stroke-width="4" stroke-miterlimit="10"/>
<path id="Vector_20" d="M141.52 3.00988L139 0.629883L136.3 2.36988" stroke="#D0C6A2" stroke-width="4" stroke-miterlimit="10"/>
<path id="Vector_21" d="M124.38 7.40991L103.44 16.3599" stroke="#D0C6A2" stroke-width="4" stroke-miterlimit="10"/>
<path id="Vector_22" d="M88.62 22.3601L69.87 30.1001" stroke="#D0C6A2" stroke-width="4" stroke-miterlimit="10"/>
<path id="Vector_23" d="M18.26 50.5L0.5 57.22" stroke="#D0C6A2" stroke-width="4" stroke-miterlimit="10"/>
</g>
<defs>
<clipPath id="clip0_340_1267">
<rect width="191" height="141.71" fill="white"/>
</clipPath>
</defs>
</svg>
