<svg width="294" height="202" viewBox="0 0 294 202" fill="none" xmlns="http://www.w3.org/2000/svg">
<path d="M3 44.5L4.5 134L59 199L57.5 108.5L3 44.5Z" stroke="#D0C6A2" stroke-width="4" stroke-linejoin="round"/>
<path d="M292 69.5L57.5 108.5L59.5 200L291 159L292 69.5Z" stroke="#D0C6A2" stroke-width="4" stroke-linecap="round" stroke-linejoin="round"/>
<path d="M106.5 28L74 32.5M150 20.5L182.5 15.5M227.5 8.5L230 8L291.5 69L57.5 108.5L2.5 43.5L28.5 40.5" stroke="#D0C6A2" stroke-width="4" stroke-linecap="round" stroke-linejoin="round"/>
<path d="M29 37.5L28.5 55.5C45.7 69.9 69 62.1667 78.5 56.5C79 46 79 43 79 38.5M29 37.5C38 47.5 69.5 55 79 38.5M29 37.5C31.5 27 70.5 21 79 38.5" stroke="#D0C6A2" stroke-width="4" stroke-linecap="round"/>
<path d="M106.5 28.4999V41.4999C121.3 54.7 146 50 156.5 45.9999C156.5 34.4999 156.5 33.9999 156.5 26.9999M106.5 28.4999C111 37 149 41 156.5 26.9999M106.5 28.4999C106.5 14.9999 145.5 8 156.5 26.9999" stroke="#D0C6A2" stroke-width="4" stroke-linecap="round"/>
<path d="M57.5 72V87C86.7 103.4 103.667 94.5 108.5 88C108.5 78.5 108.5 78 108.5 70.5M57.5 72C64.5 78 95.5 88 108.5 70.5M57.5 72C56 60 97.5 52 108.5 70.5" stroke="#D0C6A2" stroke-width="4" stroke-linecap="round"/>
<path d="M136.5 59.5V76C169.3 90.4 183.5 81 186.5 74.5C186.5 71 186.5 68 187.5 58.5M136.5 59.5C141 66 178.5 74.5 187.5 58.5M136.5 59.5C135 50 170.5 36 187.5 58.5" stroke="#D0C6A2" stroke-width="4" stroke-linecap="round"/>
<path d="M214.5 46.5001V62.0001C243.3 77.6002 259.833 68.1668 264.5 61.5001C264.5 53.5001 264.5 51.5001 264.5 45.5001M214.5 46.5001C220.5 54.5 254.5 61 264.5 45.5001M214.5 46.5001C213 35.5 251.7 23.1001 264.5 45.5001" stroke="#D0C6A2" stroke-width="4" stroke-linecap="round"/>
<path d="M183 16.5V30.5C197.5 40 218.5 38 232 33C232 23.5 232 22 232 16M183 16.5C185.5 21.5 227.5 28.5 232 16M183 16.5C180 3 225.2 -6.79998 232 16" stroke="#D0C6A2" stroke-width="4" stroke-linecap="round"/>
</svg>
