<svg width="175" height="179" viewBox="0 0 175 179" fill="none" xmlns="http://www.w3.org/2000/svg">
<g id="LEGO#2" clip-path="url(#clip0_340_1257)">
<path id="Vector" d="M0.463013 55.769V118.072L71.7593 178.461L174.537 135.705V73.4571L73.0649 117.115L0.463013 55.769Z" stroke="#D0C6A2" stroke-width="4" stroke-miterlimit="10"/>
<path id="Vector_2" d="M73.0648 117.115L71.7593 178.461" stroke="#D0C6A2" stroke-width="4" stroke-miterlimit="10"/>
<path id="Vector_3" d="M24.5371 47.4036C24.5371 47.4036 23.6112 60.4164 42.1297 59.4869C60.6482 58.5574 61.4815 47.4036 61.4815 47.4036C61.4815 47.4036 56.8426 37.4581 43.0001 37.7834C29.1575 38.1088 24.5278 47.4036 24.5278 47.4036H24.5371Z" stroke="#D0C6A2" stroke-width="4" stroke-miterlimit="10"/>
<path id="Vector_4" d="M61.4815 47.4036V64.1993C61.4815 64.1993 59.1574 71.5516 43 71.7932C26.8426 72.0349 24.5186 64.3573 24.5186 64.3573V47.4036" stroke="#D0C6A2" stroke-width="4" stroke-miterlimit="10"/>
<path id="Vector_5" d="M76.9074 26.2486C76.9074 26.2486 75.9815 39.2614 94.5 38.3319C113.019 37.4024 113.852 26.2486 113.852 26.2486C113.852 26.2486 109.213 16.3031 95.3704 16.6284C81.5278 16.9537 76.8982 26.2486 76.8982 26.2486H76.9074Z" stroke="#D0C6A2" stroke-width="4" stroke-miterlimit="10"/>
<path id="Vector_6" d="M113.852 26.2485V43.0443C113.852 43.0443 111.528 50.3965 95.3704 50.6382C79.213 50.8799 76.8889 43.2023 76.8889 43.2023V26.2485" stroke="#D0C6A2" stroke-width="4" stroke-miterlimit="10"/>
<path id="Vector_7" d="M114.87 56.9217C114.87 56.9217 113.944 69.9344 132.463 69.005C150.981 68.0755 151.815 56.9217 151.815 56.9217C151.815 56.9217 147.176 46.9762 133.333 47.3015C119.491 47.6268 114.861 56.9217 114.861 56.9217H114.87Z" stroke="#D0C6A2" stroke-width="4" stroke-miterlimit="10"/>
<path id="Vector_8" d="M151.815 56.9216V73.7174C151.815 73.7174 149.491 81.0696 133.333 81.3113C117.176 81.553 114.852 73.8754 114.852 73.8754V56.9216" stroke="#D0C6A2" stroke-width="4" stroke-miterlimit="10"/>
<path id="Vector_9" d="M61.1667 78.2998C61.1667 78.2998 60.2408 91.3126 78.7593 90.3831C97.2778 89.4536 98.1112 78.2998 98.1112 78.2998C98.1112 78.2998 93.4723 68.3544 79.6297 68.6797C65.7871 69.005 61.1575 78.2998 61.1575 78.2998H61.1667Z" stroke="#D0C6A2" stroke-width="4" stroke-miterlimit="10"/>
<path id="Vector_10" d="M98.1112 78.2998V95.0956C98.1112 95.0956 95.7871 102.448 79.6297 102.689C63.4723 102.931 61.1482 95.2536 61.1482 95.2536V78.2998" stroke="#D0C6A2" stroke-width="4" stroke-miterlimit="10"/>
<path id="Vector_11" d="M0.463013 55.7691L25.5093 45.9072" stroke="#D0C6A2" stroke-width="4" stroke-miterlimit="10"/>
<path id="Vector_12" d="M45.8796 37.7742L78.037 24.5383" stroke="#D0C6A2" stroke-width="4" stroke-miterlimit="10"/>
<path id="Vector_13" d="M97.6852 16.7307C99.0741 15.9592 100.463 15.1785 101.852 14.407C126.083 34.0935 150.306 53.7706 174.537 73.4571" stroke="#D0C6A2" stroke-width="4" stroke-miterlimit="10"/>
</g>
<defs>
<clipPath id="clip0_340_1257">
<rect width="175" height="179" fill="white"/>
</clipPath>
</defs>
</svg>
