<svg width="166" height="160" viewBox="0 0 166 160" fill="none" xmlns="http://www.w3.org/2000/svg">
<g id="LEGO#5" clip-path="url(#clip0_340_1262)">
<path id="Vector" d="M0.43335 123.216L42.9063 159.499L164.258 107.666L165.558 36.24L43.7731 86.9327L0.43335 50.5805V123.216Z" stroke="#D0C6A2" stroke-width="4" stroke-miterlimit="10"/>
<path id="Vector_2" d="M43.7732 86.9326L42.9064 159.499" stroke="#D0C6A2" stroke-width="4" stroke-miterlimit="10"/>
<path id="Vector_3" d="M29.5231 40.3176C29.5231 40.3176 28.3876 56.1267 51.0543 54.995C73.7123 53.8633 74.7438 40.3176 74.7438 40.3176C74.7438 40.3176 69.0663 28.2318 52.1291 28.6292C35.1919 29.0266 29.5231 40.3176 29.5231 40.3176Z" stroke="#D0C6A2" stroke-width="4" stroke-miterlimit="10"/>
<path id="Vector_4" d="M74.7438 40.3174V60.731C74.7438 60.731 71.9007 69.6722 52.1291 69.9573C32.3575 70.2423 29.5144 60.921 29.5144 60.921V40.3174" stroke="#D0C6A2" stroke-width="4" stroke-miterlimit="10"/>
<path id="Vector_5" d="M91.0221 14.3317C91.0221 14.3317 89.904 29.968 112.311 28.845C134.717 27.7306 135.731 14.3317 135.731 14.3317C135.731 14.3317 130.123 2.38421 113.377 2.77296C96.6303 3.1617 91.0308 14.3317 91.0308 14.3317H91.0221Z" stroke="#D0C6A2" stroke-width="4" stroke-miterlimit="10"/>
<path id="Vector_6" d="M55.9517 28.6206L91.0222 14.3406V34.711C91.0222 34.711 93.8219 43.9286 113.368 43.6435C132.914 43.3584 135.723 34.5209 135.723 34.5209V14.3406" stroke="#D0C6A2" stroke-width="4" stroke-miterlimit="10"/>
<path id="Vector_7" d="M0.43335 50.5804L30.3465 39.0044" stroke="#D0C6A2" stroke-width="4" stroke-miterlimit="10"/>
<path id="Vector_8" d="M165.558 36.2399L134.015 11.7056" stroke="#D0C6A2" stroke-width="4" stroke-miterlimit="10"/>
<path id="Vector_9" d="M125.902 5.24372L120.918 0.544189L117.017 2.89395" stroke="#D0C6A2" stroke-width="4" stroke-miterlimit="10"/>
</g>
<defs>
<clipPath id="clip0_340_1262">
<rect width="166" height="160" fill="white"/>
</clipPath>
</defs>
</svg>
