<svg width="317" height="203" viewBox="0 0 317 203" fill="none" xmlns="http://www.w3.org/2000/svg">
<path d="M24.0234 109.324V121.164C34.7282 135.835 58.9415 129.658 62 121.164C62 115.244 62 114.986 62 109.324M24.0234 109.324C27.0819 116.788 53.5891 127.084 62 109.324M24.0234 109.324C23.0039 99.8003 55.6281 89.5046 62 109.324" stroke="#D0C6A2" stroke-width="4" stroke-linecap="round" stroke-linejoin="round"/>
<path d="M73.0228 89.9699V101.44C83.4459 115.653 107.022 109.668 110 101.44C110 95.7049 110 95.4556 110 89.9699M73.0228 89.9699C76.0008 97.201 101.81 107.175 110 89.9699M73.0228 89.9699C72.0301 80.744 103.796 70.7701 110 89.9699" stroke="#D0C6A2" stroke-width="4" stroke-linecap="round" stroke-linejoin="round"/>
<path d="M119.023 70.3238V82.1638C129.728 96.835 153.941 90.6576 157 82.1638C157 76.2438 157 75.9864 157 70.3238M119.023 70.3238C122.082 77.7881 148.589 88.0837 157 70.3238M119.023 70.3238C118.004 60.8003 150.628 50.5046 157 70.3238" stroke="#D0C6A2" stroke-width="4" stroke-linecap="round" stroke-linejoin="round"/>
<path d="M167.023 50.9699V62.4399C177.728 76.6526 201.941 70.6683 205 62.4399C205 56.7049 205 56.4556 205 50.9699M167.023 50.9699C170.082 58.201 196.589 68.1748 205 50.9699M167.023 50.9699C166.004 41.744 198.628 31.7701 205 50.9699" stroke="#D0C6A2" stroke-width="4" stroke-linecap="round" stroke-linejoin="round"/>
<path d="M213.023 31.3238V43.1638C223.728 57.835 247.941 51.6576 251 43.1638C251 37.2438 251 36.9864 251 31.3238M213.023 31.3238C216.082 38.7881 242.589 49.0837 251 31.3238M213.023 31.3238C212.004 21.8003 244.628 11.5046 251 31.3238" stroke="#D0C6A2" stroke-width="4" stroke-linecap="round" stroke-linejoin="round"/>
<path d="M258.023 13.3238V25.1638C268.728 39.835 292.941 33.6576 296 25.1638C296 19.2438 296 18.9864 296 13.3238M258.023 13.3238C261.082 20.7881 287.589 31.0837 296 13.3238M258.023 13.3238C257.004 3.80026 289.628 -6.49541 296 13.3238" stroke="#D0C6A2" stroke-width="4" stroke-linecap="round" stroke-linejoin="round"/>
<path d="M3 117L24.526 107.596M258.779 10L236.747 19.658M315 26.7743L296.006 12.5416M189.136 39.228L212.435 29.5701M142.792 59.3064L166.344 48.886M95.4351 78.6223L119.494 68.7102M72.6429 88.0261L48.0779 98.1924" stroke="#D0C6A2" stroke-width="4" stroke-linecap="round" stroke-linejoin="round"/>
<path d="M2 117V171.997L36 200V142.733L2 117Z" stroke="#D0C6A2" stroke-width="4" stroke-linejoin="round"/>
<path d="M315 27L36 143.507V201L312.967 82.4672L315 27Z" stroke="#D0C6A2" stroke-width="4" stroke-linejoin="round"/>
</svg>
