<svg width="214" height="136" viewBox="0 0 214 136" fill="none" xmlns="http://www.w3.org/2000/svg">
<g id="Component 1">
<path id="Vector 91" d="M2 59.3814V76.6186L69.631 134M2 59.3814L69.631 115.402M2 59.3814L23.7795 50.7629M69.631 115.402V134M69.631 115.402L212 55.7526M69.631 134L212 73.6701V55.7526M212 55.7526L190.908 38.7423M184.26 33.299L154.456 10.6186M147.808 5.62887L142.764 2L137.491 4.04124M119.38 11.5258L90.952 23.3196M72.3821 30.8041L43.7249 42.8247" stroke="#D0C6A2" stroke-width="4" stroke-linecap="round" stroke-linejoin="round"/>
<path id="Vector 92" d="M24 52.1966C26.2785 63.2716 55.2152 69.1146 60 51.043M24 52.1966C24.4557 39.2759 58.1772 38.353 60 51.043M24 52.1966V59.3493V64.8867C35.1646 78.4997 55.8987 72.5008 60 64.8867V51.043" stroke="#D0C6A2" stroke-width="4" stroke-linejoin="round"/>
<path id="Vector 93" d="M60 82.8677C62.2785 93.5855 91.2152 99.2399 96 81.7512M60 82.8677C60.4557 70.3638 94.1772 69.4706 96 81.7512M60 82.8677V89.7896V95.1484C71.1646 108.322 91.8987 102.517 96 95.1484V81.7512" stroke="#D0C6A2" stroke-width="4" stroke-linejoin="round"/>
<path id="Vector 94" d="M72 33.1966C74.2785 44.2716 103.215 50.1146 108 32.043M72 33.1966C72.4557 20.2759 106.177 19.353 108 32.043M72 33.1966V40.3493V45.8867C83.1646 59.4997 103.899 53.5008 108 45.8867V32.043" stroke="#D0C6A2" stroke-width="4" stroke-linejoin="round"/>
<path id="Vector 95" d="M107 62.5256C109.278 73.9578 138.215 79.9892 143 61.3347M107 62.5256C107.456 49.188 141.177 48.2353 143 61.3347M107 62.5256V69.9089V75.625C118.165 89.6772 138.899 83.4847 143 75.625V61.3347" stroke="#D0C6A2" stroke-width="4" stroke-linejoin="round"/>
<path id="Vector 96" d="M118 13.1966C120.342 24.2716 150.082 30.1146 155 12.043M118 13.1966C118.468 0.275903 153.127 -0.64704 155 12.043M118 13.1966V20.3493V25.8867C129.475 39.4997 150.785 33.5008 155 25.8867V12.043" stroke="#D0C6A2" stroke-width="4" stroke-linejoin="round"/>
<path id="Vector 97" d="M155 41.8677C157.278 52.5855 186.215 58.2399 191 40.7512M155 41.8677C155.456 29.3638 189.177 28.4706 191 40.7512M155 41.8677V48.7896V54.1484C166.165 67.3223 186.899 61.5169 191 54.1484V40.7512" stroke="#D0C6A2" stroke-width="4" stroke-linejoin="round"/>
</g>
</svg>
