<svg width="251" height="170" viewBox="0 0 251 170" fill="none" xmlns="http://www.w3.org/2000/svg">
<g id="3023">
<path id="Vector 99" d="M44.9998 65.4999V90.9999C65.4998 115.5 110 102 114.5 90.9999V66.9999M44.9998 65.4999C39 83 98 101.675 114.5 66.9999M44.9998 65.4999C42.0907 41.5 110 31.4998 114.5 66.9999" stroke="#D0C6A2" stroke-width="4"/>
<path id="Vector 100" d="M140.427 26.6749V52.1749C160.927 76.6749 205.427 63.1749 209.927 52.1749V28.1749M140.427 26.6749C134.427 44.175 193.427 62.8497 209.927 28.1749M140.427 26.6749C137.517 2.67505 205.427 -7.32513 209.927 28.1749" stroke="#D0C6A2" stroke-width="4"/>
<path id="Vector 98" d="M2.5 78.5V115L67 167.5M2.5 78.5L67 132.5M2.5 78.5L45 60.5M67 132.5V167.5M67 132.5L248.5 54.5M67 167.5L248.5 90V54.5M248.5 54.5L208.5 22M86.5 44L142 19M178.5 5L184 2.5L190 6.5" stroke="#D0C6A2" stroke-width="4" stroke-linecap="round" stroke-linejoin="round"/>
</g>
</svg>
