<svg width="161" height="153" viewBox="0 0 161 153" fill="none" xmlns="http://www.w3.org/2000/svg">
<g id="Component 1">
<path id="Vector 101" d="M2 83.6359V94.3398L66.0545 150M2 83.6359L66.0545 139.534M2 83.6359L49.0364 21.0777M66.0545 139.534V150M66.0545 139.534L113.327 75.7864M66.0545 150L156.818 110.99L158 56.5194M49.0364 21.0777L113.327 75.7864M49.0364 21.0777L68.8909 12.7524M113.327 75.7864L158 56.5194M158 56.5194L136.727 38.9175M88.7455 4.66505L92.2909 3L95.8364 5.85437M102.218 11.0874L129.4 32.9709" stroke="#D0C6A2" stroke-width="4" stroke-linecap="round"/>
<path id="Vector 102" d="M68.6545 14.1797V26.7865C79.5273 40.1069 100.091 33.4467 103.873 26.7865L103.4 14.1797M68.6545 14.1797C70.0727 25.1215 97.7273 31.0681 103.4 14.1797M68.6545 14.1797C68.6545 5.61656 99.3818 -1.99508 103.4 14.1797" stroke="#D0C6A2" stroke-width="4"/>
<path id="Vector 103" d="M102.927 41.5064V54.1132C113.8 67.4336 134.364 60.7734 138.145 54.1132L137.673 41.5064M102.927 41.5064C104.345 52.4481 132 58.3947 137.673 41.5064M102.927 41.5064C102.927 32.9432 133.655 25.3316 137.673 41.5064" stroke="#D0C6A2" stroke-width="4"/>
</g>
</svg>
