<svg width="162" height="158" viewBox="0 0 162 158" fill="none" xmlns="http://www.w3.org/2000/svg">
<g id="Component 1">
<path id="Vector 104" d="M2 107.704V121.73L42.3959 155M2 107.704L42.3959 142.931M2 107.704L62.268 26.485M42.3959 142.931V155M42.3959 142.931L103.315 61.0601M42.3959 155L160 106.073V36.5966M62.268 26.485L103.315 61.0601M62.268 26.485L89.9588 15.3948M103.315 61.0601L160 36.5966M160 36.5966L133.612 14.4163M114.066 5.60944L119.93 3L124.816 7.24034" stroke="#D0C6A2" stroke-width="4" stroke-linecap="round"/>
<path id="Vector 105" d="M89.3072 18.9828V33.3347C105.466 52.6446 132.309 42.1416 134.915 33.3347V18.9828M89.3072 18.9828C90.9361 31.0515 123.188 38.8798 134.915 18.9828M89.3072 18.9828C89.3072 5.28327 131.658 -2.54505 134.915 18.9828" stroke="#D0C6A2" stroke-width="4"/>
</g>
</svg>
