<svg width="191" height="157" viewBox="0 0 191 157" fill="none" xmlns="http://www.w3.org/2000/svg">
<g id="LEGO#6" clip-path="url(#clip0_340_1263)">
<path id="Vector" d="M0.5 64.6101L35.5 95.6101L190 31.0901L187.5 91.6101L35.5 155.61L0.5 123.68V64.6101Z" stroke="#D0C6A2" stroke-width="4" stroke-miterlimit="10"/>
<path id="Vector_2" d="M35.5 95.6101V155.61" stroke="#D0C6A2" stroke-width="4" stroke-miterlimit="10"/>
<path id="Vector_3" d="M22.93 55.07C22.93 55.07 21.98 68.43 41.06 67.47C60.14 66.52 61 55.07 61 55.07C61 55.07 56.22 44.86 41.96 45.2C27.7 45.53 22.93 55.07 22.93 55.07Z" stroke="#D0C6A2" stroke-width="4" stroke-miterlimit="10"/>
<path id="Vector_4" d="M0.5 64.6101L22.93 55.0701V72.4801C22.93 72.4801 25.32 80.3601 41.96 80.1101C58.61 79.8701 61 72.3201 61 72.3201V55.0801" stroke="#D0C6A2" stroke-width="4" stroke-miterlimit="10"/>
<path id="Vector_5" d="M76.55 34.1901C76.55 34.1901 75.6 47.5501 94.68 46.5901C113.76 45.6401 114.62 34.1901 114.62 34.1901C114.62 34.1901 109.84 23.9801 95.58 24.3201C81.32 24.6501 76.55 34.1901 76.55 34.1901Z" stroke="#D0C6A2" stroke-width="4" stroke-miterlimit="10"/>
<path id="Vector_6" d="M114.62 34.1899V51.4299C114.62 51.4299 112.23 58.9799 95.58 59.2199C78.93 59.4599 76.54 51.5899 76.54 51.5899V34.1799" stroke="#D0C6A2" stroke-width="4" stroke-miterlimit="10"/>
<path id="Vector_7" d="M127.55 12.1901C127.55 12.1901 126.6 25.5501 145.68 24.5901C164.76 23.6401 165.62 12.1901 165.62 12.1901C165.62 12.1901 160.84 1.98007 146.58 2.32007C132.32 2.65007 127.55 12.1901 127.55 12.1901Z" stroke="#D0C6A2" stroke-width="4" stroke-miterlimit="10"/>
<path id="Vector_8" d="M190 31.0899L165.62 12.1899V29.4299C165.62 29.4299 163.23 36.9799 146.58 37.2199C129.93 37.4599 127.54 29.5899 127.54 29.5899V12.1899L95.58 24.3199" stroke="#D0C6A2" stroke-width="4" stroke-miterlimit="10"/>
<path id="Vector_9" d="M45.04 45.1799L77.37 32.8999" stroke="#D0C6A2" stroke-width="4" stroke-miterlimit="10"/>
<path id="Vector_10" d="M155.91 3.85011L152.5 0.610107L149.15 2.37011" stroke="#D0C6A2" stroke-width="4" stroke-miterlimit="10"/>
</g>
<defs>
<clipPath id="clip0_340_1263">
<rect width="190.53" height="156.19" fill="white"/>
</clipPath>
</defs>
</svg>
