<svg width="192" height="177" viewBox="0 0 192 177" fill="none" xmlns="http://www.w3.org/2000/svg">
<g id="LEGO#11" clip-path="url(#clip0_340_1265)">
<path id="Vector" d="M0.5 45.0701V109.88L79.5 176.07L135.5 153.07L191.5 72.3701V63.9201L80.12 110.57L0.5 45.0701Z" stroke="#D0C6A2" stroke-width="4" stroke-miterlimit="10"/>
<path id="Vector_2" d="M80.12 110.57L79.5 176.07" stroke="#D0C6A2" stroke-width="4" stroke-miterlimit="10"/>
<path id="Vector_3" d="M27.58 36.5401C27.58 36.5401 26.57 50.6901 46.78 49.6801C66.99 48.6701 67.91 36.5401 67.91 36.5401C67.91 36.5401 62.85 25.7201 47.74 26.0801C32.63 26.4401 27.58 36.5401 27.58 36.5401Z" stroke="#D0C6A2" stroke-width="4" stroke-miterlimit="10"/>
<path id="Vector_4" d="M67.91 36.54V54.81C67.91 54.81 65.38 62.81 47.74 63.07C30.11 63.33 27.57 54.98 27.57 54.98V36.54" stroke="#D0C6A2" stroke-width="4" stroke-miterlimit="10"/>
<path id="Vector_5" d="M68.18 68.5301C68.18 68.5301 67.17 82.6801 87.38 81.6701C107.59 80.6601 108.51 68.5301 108.51 68.5301C108.51 68.5301 103.45 57.7101 88.34 58.0701C73.23 58.4301 68.18 68.5301 68.18 68.5301Z" stroke="#D0C6A2" stroke-width="4" stroke-miterlimit="10"/>
<path id="Vector_6" d="M108.51 68.53V86.8C108.51 86.8 105.98 94.8 88.34 95.06C70.71 95.32 68.17 86.97 68.17 86.97V68.53" stroke="#D0C6A2" stroke-width="4" stroke-miterlimit="10"/>
<path id="Vector_7" d="M101 23.5699C107.83 24.4499 116.38 21.1999 117 16.5699C117.37 13.8099 114.82 11.3599 114 10.5699C110.46 7.15989 105.65 7.27989 102 7.36989C99.33 7.43989 96.18 7.51989 93 9.56989C91.99 10.2299 88.39 12.5499 88.34 15.3799C88.29 18.7499 93.27 22.5699 101 23.5699Z" stroke="#D0C6A2" stroke-width="4" stroke-miterlimit="10"/>
<path id="Vector_8" d="M82 43.5701V14.3901C82 14.3901 85.38 4.25012 102.69 3.41012C120 2.57012 123 16.5701 123 16.5701V33.0301L129.27 37.9001C129.27 37.9001 132 35.5701 143 35.5701C154 35.5701 164 40.5701 164 47.5701V68.5301L130.41 81.8001L123 76.8201V47.0801" stroke="#D0C6A2" stroke-width="4" stroke-miterlimit="10"/>
<path id="Vector_9" d="M141.87 55.4C148.7 56.28 157.25 53.03 157.87 48.4C158.24 45.64 155.69 43.19 154.87 42.4C151.33 38.99 146.52 39.11 142.87 39.2C140.2 39.27 137.05 39.35 133.87 41.4C132.86 42.06 129.26 44.38 129.21 47.21C129.16 50.58 134.14 54.4 141.87 55.4Z" stroke="#D0C6A2" stroke-width="4" stroke-miterlimit="10"/>
<path id="Vector_10" d="M82 14.3899C82 14.3899 86 27.5699 102 27.5699C118 27.5699 123 17.3299 123 17.3299" stroke="#D0C6A2" stroke-width="4" stroke-miterlimit="10"/>
<path id="Vector_11" d="M164 47.5699C164 47.5699 164 59.5699 144 59.5699C124 59.5699 123 47.9599 123 47.9599C123 43.3499 129.27 37.8999 129.27 37.8999" stroke="#D0C6A2" stroke-width="4" stroke-miterlimit="10"/>
<path id="Vector_12" d="M123 33.6599V47.9599" stroke="#D0C6A2" stroke-width="4" stroke-miterlimit="10"/>
<path id="Vector_13" d="M123 58.0601L112 67.5701L123 76.8101" stroke="#D0C6A2" stroke-width="4" stroke-miterlimit="10"/>
<path id="Vector_14" d="M112 67.57L62 26.57L82 17.2" stroke="#D0C6A2" stroke-width="4" stroke-miterlimit="10"/>
<path id="Vector_15" d="M164 68.53L174 64.57L164 56.52" stroke="#D0C6A2" stroke-width="4" stroke-miterlimit="10"/>
<path id="Vector_16" d="M141.78 35.58L123 21.54" stroke="#D0C6A2" stroke-width="4" stroke-miterlimit="10"/>
<path id="Vector_17" d="M0.5 45.0699L30.87 32.4199" stroke="#D0C6A2" stroke-width="4" stroke-miterlimit="10"/>
<path id="Vector_18" d="M48.59 26.0699L83.41 11.8799" stroke="#D0C6A2" stroke-width="4" stroke-miterlimit="10"/>
<path id="Vector_19" d="M102.69 3.41007L110 0.570068L191.5 63.9201" stroke="#D0C6A2" stroke-width="4" stroke-miterlimit="10"/>
</g>
<defs>
<clipPath id="clip0_340_1265">
<rect width="192" height="176.65" fill="white"/>
</clipPath>
</defs>
</svg>
