<svg width="105" height="92" viewBox="0 0 105 92" fill="none" xmlns="http://www.w3.org/2000/svg">
<g id="Component 2">
<path id="Vector 108" d="M22.1479 17.6643V36.1696C31.3773 57.9259 80.5174 47.1728 83.0119 36.1696V17.6643M22.1479 17.6643C22.1479 28.6674 71.5375 40.921 83.0119 17.6643M22.1479 17.6643C20.4019 -2.59149 83.0118 -3.8419 83.0119 17.6643" stroke="#D0C6A2" stroke-width="3" stroke-linejoin="round"/>
<path id="Vector 106" d="M13.168 63.9277V71.1798C24.3929 100.688 89.2479 91.4357 92.4907 71.1798V63.9277C72.7348 78.3319 23.1457 74.9309 13.168 63.9277Z" stroke="#D0C6A2" stroke-width="3" stroke-linejoin="bevel"/>
<path id="Vector 107" d="M2.19252 37.67V51.1739C15.413 83.4332 93.9873 78.6819 102.718 52.1742V37.67M2.19252 37.67C4.4375 60.9267 89.9962 73.1803 102.718 37.67M2.19252 37.67C0.695878 30.4179 7.97958 19.2647 22.1479 15.6636M102.718 37.67C103.965 32.9186 101.72 21.8154 82.7624 15.4136" stroke="#D0C6A2" stroke-width="3" stroke-linecap="round" stroke-linejoin="round"/>
<path id="Vector 109" d="M32 16L44 25.5L49 23" stroke="#D0C6A2" stroke-linecap="round"/>
<path id="Vector 110" d="M45 10.5L40 12.5L46 17M57.5 19L52 21.5L46 17M46 17L49.5 15.5" stroke="#D0C6A2" stroke-linecap="round" stroke-linejoin="round"/>
<path id="Vector 111" d="M55.5 8.4999C53 6.00002 47.1018 8.37287 49 9.9999C52.5 13 54.5 15.0001 57 16C61.5 18.5 65.1714 15.9371 64 15C61.5 13 60 12 58.5 10.9999L56.5 12" stroke="#D0C6A2" stroke-linecap="round"/>
<path id="Vector 112" d="M64 12L63.7226 12.416L63.7226 12.416L64 12ZM61 9.99989L61.2773 9.58387C61.26 9.57236 61.2421 9.56193 61.2235 9.55264L61 9.99989ZM63.7226 12.416C66.0641 13.977 68.2427 14.1706 69.6315 13.5858C70.3237 13.2944 70.858 12.7859 71.0241 12.1213C71.1944 11.4402 70.9438 10.7367 70.3536 10.1464L69.6464 10.8536C70.0562 11.2633 70.1181 11.6223 70.054 11.8787C69.9858 12.1516 69.7388 12.4556 69.2435 12.6642C68.2573 13.0794 66.4359 13.023 64.2774 11.584L63.7226 12.416ZM70.3536 10.1464C68.2918 8.08469 65.2009 6.53888 61.748 4.56582L61.2519 5.43406C64.799 7.461 67.7082 8.91531 69.6464 10.8536L70.3536 10.1464ZM60.7226 10.4159L63.7226 12.416L64.2774 11.584L61.2773 9.58387L60.7226 10.4159ZM56.7226 7.916C58.2277 8.91948 59.2346 9.54887 59.8677 9.92874C60.1844 10.1187 60.408 10.2465 60.5541 10.3276C60.6271 10.3682 60.6809 10.3972 60.7172 10.4164C60.7354 10.4261 60.7493 10.4333 60.7591 10.4383C60.764 10.4408 60.7678 10.4428 60.7707 10.4443C60.7722 10.445 60.7734 10.4456 60.7743 10.4461C60.7748 10.4463 60.7752 10.4465 60.7755 10.4467C60.7757 10.4468 60.7759 10.4469 60.776 10.4469C60.7761 10.447 60.7762 10.447 60.7762 10.447C60.7763 10.4471 60.7764 10.4471 61 9.99989C61.2235 9.55264 61.2236 9.55269 61.2237 9.55273C61.2237 9.55274 61.2238 9.55278 61.2238 9.5528C61.2239 9.55284 61.224 9.55287 61.224 9.5529C61.2241 9.55296 61.2242 9.55298 61.2241 9.55297C61.2241 9.55295 61.2238 9.55281 61.2233 9.55253C61.2222 9.55198 61.2201 9.5509 61.2169 9.54927C61.2106 9.54601 61.2 9.54053 61.185 9.53259C61.155 9.5167 61.1072 9.49098 61.0396 9.45345C60.9044 9.37837 60.6905 9.25621 60.3822 9.07122C59.7654 8.70117 58.7722 8.0806 57.2773 7.08396L56.7226 7.916ZM57.2773 7.08396C56.5958 6.62957 56.4413 6.23448 56.4452 5.99236C56.4492 5.74742 56.6186 5.44402 57.066 5.18088C57.9575 4.65647 59.6402 4.51312 61.2519 5.43406L61.748 4.56582C59.8597 3.48677 57.7924 3.59337 56.5589 4.31895C55.9438 4.6808 55.457 5.25241 55.4453 5.97624C55.4336 6.70288 55.9041 7.37033 56.7226 7.916L57.2773 7.08396Z" fill="#D0C6A2"/>
</g>
</svg>
