<svg width="270" height="246" viewBox="0 0 270 246" fill="none" xmlns="http://www.w3.org/2000/svg">
<path d="M54.5432 244L26.3175 203.722L2 83.3225L34.5681 122.301L35.0023 128.364L31.0942 123.6L48.4638 225.377L54.5432 244Z" stroke="#D0C6A2" stroke-width="4" stroke-linejoin="round"/>
<path d="M245.462 126.754L247.639 141.084L54.2931 244L48.6321 224.894L57.7769 220.551M94.7914 54.6705L95.2268 66.395C113.952 79.4223 133.112 72.4744 137.902 64.6582V52.9336M94.7914 54.6705C96.5332 65.5265 132.677 68.5663 137.902 52.9336M94.7914 54.6705C93.485 36.8666 136.596 32.5242 137.902 52.9336" stroke="#D0C6A2" stroke-width="4" stroke-linejoin="round"/>
<path d="M206.716 9.86987L177.16 20.2868M268 26.3633L34.598 122.286M268 26.3633V31.5718L35.0327 129.23L34.598 122.286M268 26.3633L244.529 13.3422M34.598 122.286L2 83.2223L29.3824 73.2394M154.559 28.5335L122.83 39.8185M96.0047 49.3673L58.6256 62.8225" stroke="#D0C6A2" stroke-width="4" stroke-linecap="round" stroke-linejoin="round"/>
<path d="M46.4034 131.844L59.4484 221.702M46.4034 131.844L260.775 41.9866M46.4034 131.844L40.7506 126.635M59.4484 221.702L245.991 127.069L260.775 41.9866M59.4484 221.702L52.0562 212.586L40.7506 126.635M260.775 41.9866L250.774 39.3821L40.7506 126.635" stroke="#D0C6A2" stroke-width="2"/>
<path d="M241.606 124.046L65.6283 213.832L63.7948 199.952M241.606 124.046L254.207 49.8752L242.476 54.887M241.606 124.046L232.047 116.239M232.047 116.239L242.476 54.887M232.047 116.239L63.7948 199.952M242.476 54.887L55.2 134.89L63.7948 199.952" stroke="#D0C6A2" stroke-width="2"/>
<path d="M260.119 34.7913L259.462 42.0054" stroke="#D0C6A2" stroke-width="2"/>
<path d="M205.819 107.861L204.948 117.886L214.09 125.296L222.796 120.501M205.819 107.861L222.796 120.501M205.819 107.861L209.301 106.118M222.796 120.501L226.714 118.758M209.301 106.118L226.714 118.758M209.301 106.118L212.784 67.762L242.385 55.1221L232.373 116.578L226.714 118.758" stroke="#D0C6A2" stroke-width="2"/>
<path d="M82.9395 190.441L90.0099 186.506C86.2668 180.385 85.0191 178.636 82.9395 176.45C80.107 177.194 79.15 180.333 79.6123 183.628M82.9395 190.441L79.6123 192.19V183.628M82.9395 190.441C81.1409 188.739 79.9645 186.138 79.6123 183.628" stroke="#D0C6A2" stroke-linejoin="round"/>
<path d="M87.3827 173.369L96.8889 183.008C100.778 181.332 102.074 180.913 103.802 179.655C97.9259 171.273 90.4074 171.972 87.3827 173.369Z" stroke="#D0C6A2" stroke-linejoin="round"/>
<path d="M87.6016 175.836L84.0988 177.169L90.6667 186.943L95.0453 184.722M87.6016 175.836L95.0453 184.722M87.6016 175.836V173.171L97.2346 183.389L95.0453 184.722" stroke="#D0C6A2" stroke-linejoin="round"/>
<path d="M132.414 165.52L139.926 161.585C135.949 155.464 134.623 153.715 132.414 151.529C129.404 152.273 128.387 155.412 128.878 158.706M132.414 165.52L128.878 167.268V158.706M132.414 165.52C130.503 163.818 129.253 161.217 128.878 158.706" stroke="#D0C6A2" stroke-linejoin="round"/>
<path d="M137.299 148.501L146.805 158.743C150.694 156.961 151.99 156.516 153.719 155.18C147.842 146.274 140.323 147.016 137.299 148.501Z" stroke="#D0C6A2" stroke-linejoin="round"/>
<path d="M137.343 150.915L134.015 152.248L140.254 162.022L144.414 159.8M137.343 150.915L144.414 159.8M137.343 150.915V148.249L146.494 158.467L144.414 159.8" stroke="#D0C6A2" stroke-linejoin="round"/>
<path d="M177.363 143.331L184.916 139.724C180.939 133.603 179.942 132.072 177.732 129.886C174.723 130.631 173.706 133.769 174.197 137.064M177.363 143.331L173.751 145.298L174.197 137.064M177.363 143.331C175.452 141.629 174.571 139.574 174.197 137.064" stroke="#D0C6A2" stroke-linejoin="round"/>
<path d="M182.617 126.858L191.156 136.444C195.044 134.663 196.98 133.845 198.709 132.51C192.832 123.603 185.642 125.374 182.617 126.858Z" stroke="#D0C6A2" stroke-linejoin="round"/>
<path d="M182.289 129.886L178.677 130.606L184.588 139.724L186.886 138.412L188.528 137.428M182.289 129.886L188.528 137.428M182.289 129.886L182.617 126.935L191.156 136.117L188.528 137.428" stroke="#D0C6A2" stroke-linejoin="round"/>
<path d="M27.7622 81.6835L29.4916 93.8414C42.8941 106.868 70.9961 97.7493 73.5901 89.4995C73.5901 83.8548 73.5901 81.6837 73.5901 74.7363M27.7622 81.6835C31.6533 92.1046 72.5054 92.1046 73.5901 74.7363M27.7622 81.6835C24.7358 60.8414 69.2667 54.3283 73.5901 74.7363" stroke="#D0C6A2" stroke-width="4" stroke-linejoin="round"/>
<path d="M65.9693 74.9791C65.2237 80.3314 59.4292 84.29 50.5712 84.29C46.1423 84.29 42.2218 83.5085 39.448 82.0507C36.7136 80.6136 35.2021 78.5954 35.1829 76.0507C35.3776 74.2285 36.5537 72.2801 39.0442 70.6454C41.5537 68.9983 45.3542 67.7074 50.6122 67.271C55.0517 67.275 59.1822 67.9321 62.0595 69.2778C63.4971 69.9501 64.5613 70.7662 65.2183 71.6985C65.8589 72.6076 66.1504 73.6786 65.9693 74.9791Z" stroke="#D0C6A2" stroke-width="2"/>
<path d="M41.4074 83.363C43.1252 80.1774 49.9962 75.1094 63.7383 80.3222C58.585 86.4037 43.984 84.6661 41.4074 83.363Z" stroke="#D0C6A2" stroke-width="2" stroke-linejoin="round"/>
<path d="M129.731 51.8429C129.731 53.6883 128.426 55.5496 125.903 57.0053C123.406 58.4458 119.89 59.3686 115.953 59.3686C112.016 59.3686 108.5 58.4458 106.003 57.0053C103.48 55.5496 102.175 53.6883 102.175 51.8429C102.175 49.9974 103.48 48.1362 106.003 46.6805C108.5 45.24 112.016 44.3171 115.953 44.3171C119.89 44.3171 123.406 45.24 125.903 46.6805C128.426 48.1362 129.731 49.9974 129.731 51.8429Z" stroke="#D0C6A2" stroke-width="2"/>
<path d="M107.743 58.0057C109.663 56.6449 116.159 54.4949 126.79 56.781C122.361 60.4552 109.958 60.4551 107.743 58.0057Z" stroke="#D0C6A2" stroke-width="2" stroke-linejoin="round"/>
<path d="M153.719 32.8991V44.5816C165.151 57.0429 190.096 52.8026 194.426 45.447V32.8991M153.719 32.8991C157.616 41.1203 185.332 47.6104 194.426 32.8991M153.719 32.8991C153.719 14.2938 195.292 18.1879 194.426 32.8991" stroke="#D0C6A2" stroke-width="4" stroke-linejoin="round"/>
<path d="M186.872 30.2004C186.872 31.6333 185.742 33.1739 183.368 34.4154C181.042 35.632 177.76 36.4145 174.079 36.4145C170.398 36.4145 167.116 35.632 164.79 34.4154C162.416 33.1739 161.286 31.6333 161.286 30.2004C161.286 28.7675 162.416 27.227 164.79 25.9854C167.116 24.7688 170.398 23.9863 174.079 23.9863C177.76 23.9863 181.042 24.7688 183.368 25.9854C185.742 27.227 186.872 28.7675 186.872 30.2004Z" stroke="#D0C6A2" stroke-width="2"/>
<path d="M166.854 35.5324C169.19 33.9834 175.349 31.8148 181.304 35.5324C175.174 38.0672 167.73 35.9549 166.854 35.5324Z" stroke="#D0C6A2" stroke-width="2" stroke-linejoin="round"/>
<path d="M205.383 11.3139L204.948 23.6601C219.212 36.3591 240.607 31.1561 244.086 25.4239V15.2823M205.383 11.3139C207.557 21.0145 234.345 25.8648 244.086 15.2823M205.383 11.3139C207.992 -3.67798 248 0.731447 244.086 15.2823" stroke="#D0C6A2" stroke-width="4" stroke-linejoin="round"/>
<path d="M238.101 11.5094C238.101 12.5933 237.081 13.9052 234.65 15.0036C232.311 16.0602 229.009 16.7398 225.309 16.7398C221.608 16.7398 218.307 16.0602 215.967 15.0036C213.536 13.9052 212.516 12.5933 212.516 11.5094C212.516 10.4255 213.536 9.11363 215.967 8.01522C218.307 6.95858 221.608 6.27905 225.309 6.27905C229.009 6.27905 232.311 6.95858 234.65 8.01522C237.081 9.11363 238.101 10.4255 238.101 11.5094Z" stroke="#D0C6A2" stroke-width="2"/>
</svg>
