<svg width="198" height="125" viewBox="0 0 198 125" fill="none" xmlns="http://www.w3.org/2000/svg">
<g id="Component 1">
<path id="Vector 143" d="M90.933 98.2588V99.4185C91.7201 101.738 101.479 104.599 109.034 102.125" stroke="#D0C6A2" stroke-width="2" stroke-linecap="round" stroke-linejoin="round"/>
<path id="Vector 142" d="M127.529 10.5048V20.1694C134.613 29.0607 152.714 24.8083 154.288 20.1694L154.682 11.278M127.529 10.5048C127.923 16.6901 146.182 21.1745 154.682 11.278M127.529 10.5048C126.988 2.00009 155.469 0.453671 154.682 11.278" stroke="#D0C6A2" stroke-width="4"/>
<path id="Vector 140" d="M2 93.2332V103.284L27.1846 123M2 93.2332L27.1846 114.495M2 93.2332L111.789 15.9169M27.1846 114.495V123M27.1846 114.495L76.7667 106.764M27.1846 114.495L137.761 35.6326L111.789 15.9169M27.1846 123L76.7667 114.495M76.7667 106.764V114.495M76.7667 106.764L81.4888 103.284V108.696L76.7667 114.495M111.789 15.9169L127.529 8.95847M170.815 21.7157L154.682 9.73163M140.909 3.54633L144.45 2L147.205 3.93291" stroke="#D0C6A2" stroke-width="4" stroke-linecap="round" stroke-linejoin="round"/>
<path id="Vector 141" d="M81.4888 102.898C80.833 101.351 80.7018 98.2588 85.4239 98.2588C90.146 98.2588 101.82 97.7434 107.067 97.4857C107.985 97.2279 109.743 97.4857 109.428 100.578C109.113 103.671 109.297 106.764 109.428 107.923C109.559 107.923 110.136 107.923 111.396 107.923C112.655 107.923 120.315 106.892 123.988 106.377V95.9393C123.594 95.1661 123.594 93.6198 126.742 93.6198C129.89 93.6198 140.646 92.0735 145.631 91.3003C146.464 90.8324 148.054 90.5769 148.341 92.8467M164.519 98.2588C160.715 98.7743 152.557 99.9598 150.353 100.578C148.149 101.197 148.123 100.321 148.385 99.8051C148.385 99.032 148.385 96.7125 148.385 93.6198C148.385 93.3344 148.37 93.0775 148.341 92.8467M164.519 98.2588V90.1406M164.519 98.2588L196 84.3419V74.6773M164.519 90.1406L148.341 92.8467M164.519 90.1406L196 74.6773M164.519 90.1406L137.761 35.6326L170.815 21.3291L196 74.6773" stroke="#D0C6A2" stroke-width="4" stroke-linejoin="round"/>
</g>
</svg>
