<svg width="196" height="132" viewBox="0 0 196 132" fill="none" xmlns="http://www.w3.org/2000/svg">
<g id="Component 1">
<path id="Vector 147" d="M134.923 51.8847C126.718 52.0674 109.706 49.5823 107.299 38.1801C107.299 26.5587 107.664 21.4607 107.846 20.3643M107.846 20.3643C107.846 32.9724 134.65 37.3579 136.564 35.7133M107.846 20.3643C108.94 4.19297 162.273 -4.85223 160.632 27.4904" stroke="#D0C6A2" stroke-width="4" stroke-linecap="round"/>
<path id="Vector 146" d="M35.3675 52.7067V69.9744C45.6513 88.3932 85.1453 83.1307 89.7949 70.7966V52.7067M35.3675 52.7067C39.1966 67.2335 80.8239 75.0724 89.7949 52.7067M35.3675 52.7067C35.3675 31.6017 88.7009 28.0386 89.7949 52.7067" stroke="#D0C6A2" stroke-width="4"/>
<path id="Vector 145" d="M169.932 38.1799C169.293 55.7217 167.853 95.1907 167.197 112.732C164.188 127.259 148.598 127.259 141.487 122.051L112.496 98.7538C111.493 90.3484 114.574 73.5923 134.923 73.8116C134.923 86.9679 134.923 101.769 134.923 107.525L136.291 38.1799M169.932 38.1799C168.017 46.1285 145.918 53.0904 136.291 38.1799M169.932 38.1799C169.932 24.1465 136.291 23.9273 136.291 38.1799" stroke="#D0C6A2" stroke-width="4" stroke-linejoin="round"/>
<path id="Vector 144" d="M2 60.3812V88.8865L52.5983 130M2 60.3812L52.5983 103.687M2 60.3812L37.2821 45.5803M52.5983 103.687V130M52.5983 103.687L135.47 67.5075M52.5983 130L117.145 102.591M194 43.1135V71.0707L168.838 80.9379M194 43.1135L143.949 2L135.47 5.56317M194 43.1135L169.932 53.5289M109.214 16.2527L62.718 35.439" stroke="#D0C6A2" stroke-width="4" stroke-linecap="round" stroke-linejoin="round"/>
</g>
</svg>
