<svg width="179" height="154" viewBox="0 0 179 154" fill="none" xmlns="http://www.w3.org/2000/svg">
<g id="Component 1">
<path id="Vector 152" d="M61 127L175.366 76.6634L177 19.7789M177 19.7789L65.493 8.32013M177 19.7789L171.69 14.4587L61 3" stroke="#D0C6A2" stroke-width="4" stroke-linecap="round" stroke-linejoin="round"/>
<path id="Vector 150" d="M51 98L54.75 93.4961L56 46" stroke="#D0C6A2" stroke-width="4" stroke-linejoin="round"/>
<path id="Vector 151" d="M57 104L63.3158 97.4638L64.1579 32.9191V31.6936L65 8" stroke="#D0C6A2" stroke-width="4" stroke-linecap="round" stroke-linejoin="round"/>
<path id="Vector 148" d="M2 108.11V129.649L6.90141 133.306M2 108.11L6.90141 112.58M2 108.11C6.90141 98.3566 33.1239 94.7805 51.4225 98.3567L49.7887 100.389L54.6901 105.265H60M6.90141 133.306V112.58M6.90141 133.306L15.8873 129.649M6.90141 112.58L15.0704 108.923L15.8873 108.516M60 105.265C59.8638 113.393 53.6282 129.649 29.7746 129.649M60 105.265V129.649C58.0939 136.693 50.0338 151.025 29.7746 152M29.7746 129.649L24.8732 125.991M29.7746 129.649V152M24.8732 125.991C33.4507 124.25 51.0617 116.182 41.6197 108.923C32.6338 102.014 17.5211 106.078 15.8873 107.297V108.516M24.8732 125.991V127.617M15.8873 108.516V129.649M15.8873 129.649C17.6119 128.565 21.8235 126.641 24.8732 127.617M29.7746 152L24.8732 147.53V127.617" stroke="#D0C6A2" stroke-width="4" stroke-linejoin="round"/>
<path id="Vector 149" d="M4 13.1101V34.6487L8.91275 38.3062M4 13.1101L8.91275 17.5804M4 13.1101C8.91275 3.35661 35.196 -0.219476 53.5369 3.35675H60.4966L65 8.09583L62.953 11.3469M8.91275 38.3062V17.5804M8.91275 38.3062L17.9195 34.6487M8.91275 17.5804L17.1007 13.9229L17.9195 13.5164M62.953 11.3469C62.8166 19.4747 54.7651 30.9911 31.8389 34.6487M62.953 11.3469L62.1342 34.6487C60.2237 41.6927 52.145 56.0247 31.8389 57M31.8389 34.6487L26.9262 30.9911M31.8389 34.6487V57M26.9262 30.9911C35.5235 29.25 53.1752 21.1822 43.7114 13.9229C34.7047 7.01418 19.557 11.078 17.9195 12.2972V13.5164M26.9262 30.9911V32.6167M17.9195 13.5164V34.6487M17.9195 34.6487C19.648 33.565 23.8694 31.6413 26.9262 32.6167M31.8389 57L26.9262 52.5297V32.6167" stroke="#D0C6A2" stroke-width="4" stroke-linejoin="round"/>
</g>
</svg>
