<svg width="129" height="201" viewBox="0 0 129 201" fill="none" xmlns="http://www.w3.org/2000/svg">
<path d="M25.3258 50.9308L27.288 21.8828M27.288 21.8828C28.9232 45.3823 84.5841 61.0486 105.776 23.1883M27.288 21.8828C27.288 -0.311238 103.814 -9.12361 105.776 23.1883M105.776 23.1883V50.9308" stroke="#D0C6A2" stroke-width="4" stroke-linecap="round" stroke-linejoin="round"/>
<path d="M11.9175 160.595V172.998C32.0627 212.947 106.757 201.393 115.914 174.956V159.616C92.6945 188.99 26.6339 176.261 11.9175 160.595Z" stroke="#D0C6A2" stroke-width="4" stroke-linejoin="round"/>
<path d="M126.706 143.95C103.16 199.108 2.10647 175.609 2.10647 143.95C0.536684 134.55 16.7139 77.5854 24.9988 50.2781C32.1935 64.9653 81.4446 81.3497 105.776 50.2781C113.843 79.3735 129.322 138.842 126.706 143.95Z" stroke="#D0C6A2" stroke-width="4" stroke-linejoin="round"/>
<path d="M92.6567 22.8617C92.6567 25.8983 90.2884 29.1243 85.39 31.7091C80.5826 34.2459 73.803 35.8753 66.2049 35.8753C58.6068 35.8753 51.8272 34.2459 47.0198 31.7091C42.1213 29.1243 39.7531 25.8983 39.7531 22.8617C39.7531 19.8251 42.1213 16.5992 47.0198 14.0144C51.8272 11.4776 58.6068 9.84814 66.2049 9.84814C73.803 9.84814 80.5826 11.4776 85.39 14.0144C90.2884 16.5992 92.6567 19.8251 92.6567 22.8617Z" stroke="#D0C6A2" stroke-width="4"/>
</svg>
