<svg width="280" height="175" viewBox="0 0 280 175" fill="none" xmlns="http://www.w3.org/2000/svg">
<path d="M2 59.7778V73.1111L174.732 172M2 59.7778L174.732 158.296M2 59.7778L15.0013 52.7407M174.732 158.296V172M174.732 158.296L278 84.2222M174.732 172L278 96.4444V84.2222M278 84.2222L264.256 77.5556M107.497 2H107.868M249.026 70.1481L233.052 62.3704M217.822 55.3333L203.335 47.9259M187.734 40.5185L173.989 33.8519M158.016 26.4444L146.501 20.8889M129.785 13.1111L119.384 7.55556M95.2382 9.03704L82.2369 16.0741M69.9785 23.1111L56.6057 30.1481M43.2328 37.5556L26.5168 46.4444" stroke="#D0C6A2" stroke-width="4" stroke-linecap="round"/>
<path d="M160.616 133.482V140.889C167.303 150.148 184.019 146.074 186.248 141.63V134.222M160.616 133.482C160.245 140.519 182.904 146.074 186.248 134.222M160.616 133.482C160.616 123.482 185.505 122.37 186.248 134.222" stroke="#D0C6A2" stroke-width="4"/>
<path d="M188.109 114.269V121.676C194.796 130.936 211.512 126.862 213.741 122.417V115.01M188.109 114.269C187.738 121.306 210.398 126.862 213.741 115.01M188.109 114.269C188.109 104.269 212.998 103.158 213.741 115.01" stroke="#D0C6A2" stroke-width="4"/>
<path d="M214.112 95.01V102.417C220.799 111.677 237.515 107.603 239.743 103.158V95.7507M214.112 95.01C213.741 102.047 236.4 107.603 239.743 95.7507M214.112 95.01C214.112 85.0099 239 83.8988 239.743 95.7507" stroke="#D0C6A2" stroke-width="4"/>
<path d="M238.629 77.9729V85.3803C245.315 94.6395 262.031 90.5655 264.26 86.121V78.7136M238.629 77.9729C238.258 85.0099 260.917 90.5655 264.26 78.7136M238.629 77.9729C238.629 67.9728 263.517 66.8617 264.26 78.7136" stroke="#D0C6A2" stroke-width="4"/>
<path d="M207.426 63.1579V70.5653C214.112 79.8246 230.828 75.7505 233.057 71.3061V63.8987M207.426 63.1579C207.054 70.195 229.714 75.7505 233.057 63.8987M207.426 63.1579C207.426 53.1579 232.314 52.0468 233.057 63.8987" stroke="#D0C6A2" stroke-width="4"/>
<path d="M177.708 48.037V55.1545C184.297 64.0513 200.768 60.1367 202.964 55.8662V48.7487M177.708 48.037C177.342 54.7986 199.67 60.1367 202.964 48.7487M177.708 48.037C177.708 38.4283 202.232 37.3607 202.964 48.7487" stroke="#D0C6A2" stroke-width="4"/>
<path d="M148.734 33.9628V41.0802C155.322 49.9771 171.793 46.0625 173.989 41.792V34.6745M148.734 33.9628C148.368 40.7244 170.695 46.0625 173.989 34.6745M148.734 33.9628C148.734 24.3541 173.257 23.2865 173.989 34.6745" stroke="#D0C6A2" stroke-width="4"/>
<path d="M121.245 20.6295V27.747C127.834 36.6439 144.305 32.7292 146.501 28.4587V21.3413M121.245 20.6295C120.879 27.3911 143.206 32.7292 146.501 21.3413M121.245 20.6295C121.245 11.0209 145.769 9.95322 146.501 21.3413" stroke="#D0C6A2" stroke-width="4"/>
<path d="M95.2425 8.9615V15.5518C101.637 23.7896 117.624 20.165 119.755 16.2108V9.62053M95.2425 8.9615C94.8873 15.2223 116.558 20.165 119.755 9.62053M95.2425 8.9615C95.2425 0.0646057 119.045 -0.92395 119.755 9.62053" stroke="#D0C6A2" stroke-width="4"/>
<path d="M69.9826 22.757V29.0837C76.1835 36.992 91.6854 33.5123 93.7523 29.7163V23.3897M69.9826 22.757C69.6382 28.7673 90.6519 33.5123 93.7523 23.3897M69.9826 22.757C69.9826 14.216 93.0634 13.267 93.7523 23.3897" stroke="#D0C6A2" stroke-width="4"/>
<path d="M43.237 36.8312V43.1579C49.4378 51.0662 64.9398 47.5866 67.0067 43.7906V37.4639M43.237 36.8312C42.8926 42.8416 63.9063 47.5866 67.0067 37.4639M43.237 36.8312C43.237 28.2902 66.3178 27.3412 67.0067 37.4639" stroke="#D0C6A2" stroke-width="4"/>
<path d="M15.0055 53.1274V59.454C21.2063 67.3624 36.7083 63.8827 38.7752 60.0867V53.76M15.0055 53.1274C14.6611 59.1377 35.6748 63.8827 38.7752 53.76M15.0055 53.1274C15.0055 44.5864 38.0863 43.6373 38.7752 53.76" stroke="#D0C6A2" stroke-width="4"/>
</svg>
