<svg width="174" height="228" viewBox="0 0 174 228" fill="none" xmlns="http://www.w3.org/2000/svg">
<path d="M133.127 145.569L134.77 59.647" stroke="#D0C6A2" stroke-width="2" stroke-linecap="round" stroke-linejoin="round"/>
<path d="M30.1964 22.0392V36.8627C47.4976 47.1843 74.818 40.9803 77.2818 35.2156V22.0392M30.1964 22.0392C32.1127 28.3529 68.7407 31.4823 77.2818 22.0392M30.1964 22.0392C28.5539 12.7058 75.3655 8.86264 77.2818 22.0392" stroke="#D0C6A2" stroke-width="4" stroke-linecap="round" stroke-linejoin="round"/>
<path d="M122.725 148.588L133.127 145.569L142.435 152.157L131.758 154.902" stroke="#D0C6A2" stroke-width="2" stroke-linecap="round" stroke-linejoin="round"/>
<path d="M122.998 148.039V142.549L128.747 141.176V134.863L127.105 135.137L128.2 61.0195" stroke="#D0C6A2" stroke-width="2" stroke-linecap="round" stroke-linejoin="round"/>
<path d="M122.177 157.373V153.255L126.557 156.275L131.485 154.902L122.725 148.863V153.255" stroke="#D0C6A2" stroke-width="2" stroke-linecap="round" stroke-linejoin="round"/>
<path d="M75.3655 18.4706L96.7182 14.6274" stroke="#D0C6A2" stroke-width="4" stroke-linecap="round" stroke-linejoin="round"/>
<path d="M48.8116 194.706L43.8841 191.137L41.4203 65.9608M48.8116 194.706L159.134 164.784L163.514 46.4706M48.8116 194.706L46.0741 69.8039M163.514 46.4706L46.0741 69.8039M163.514 46.4706L158.86 42.6274L41.4203 65.9608M46.0741 69.8039L41.4203 65.9608" stroke="#D0C6A2" stroke-width="2" stroke-linecap="round" stroke-linejoin="round"/>
<path d="M152.837 160.118L56.2029 185.921L56.0217 175.49M152.837 160.118L156.122 55.5293L145.446 57.6302M152.837 160.118L142.982 152.431M142.982 152.431L145.446 57.6302M142.982 152.431L56.0217 175.49M145.446 57.6302L54.2866 75.5685L56.0217 175.49" stroke="#D0C6A2" stroke-width="2" stroke-linecap="round" stroke-linejoin="round"/>
<path d="M40.599 226L7.47504 194.157L2 31.9216M40.599 226V221.333M40.599 226L165.977 189.765V185.647M40.599 221.333L35.124 200.471M40.599 221.333L165.977 185.647M35.124 200.471L31.5652 57.1765L37.314 59.9216M35.124 200.471L161.871 166.157M37.314 59.9216V53.8824M37.314 59.9216L165.977 35.7647M37.314 53.8824L2 31.9216M37.314 53.8824L172 28.0785M2 31.9216L29.9227 27.2549M165.977 185.647L161.871 166.157M161.871 166.157L165.977 35.7647M165.977 35.7647L172 34.3922V28.0785M172 28.0785L142.982 13.804" stroke="#D0C6A2" stroke-width="4" stroke-linejoin="round"/>
<path d="M38.5878 20.6667V20.6046L38.5825 20.5622C38.5904 20.5336 38.6594 20.317 39.2609 19.9514C39.943 19.5368 41.0251 19.1204 42.4631 18.7533C45.3202 18.0239 49.3401 17.5491 53.7391 17.5491C58.1409 17.5491 62.0918 18.0049 64.9128 18.7241C66.3309 19.0856 67.4072 19.4998 68.105 19.9204C68.8643 20.3781 68.8905 20.6604 68.8905 20.6667C68.8905 20.673 68.8643 20.9554 68.105 21.413C67.4072 21.8336 66.3309 22.2478 64.9128 22.6093C62.0918 23.3285 58.1409 23.7844 53.7391 23.7844C49.289 23.7844 45.3395 23.5772 42.5251 22.9824C41.1108 22.6836 40.0715 22.304 39.4086 21.8657C38.7717 21.4445 38.5878 21.0505 38.5878 20.6667Z" stroke="#D0C6A2" stroke-width="2"/>
<path d="M96.7604 10.5018V25.3253C114.062 35.6469 141.382 29.443 143.846 23.6783V10.5018M96.7604 10.5018C98.6767 16.8155 135.305 19.945 143.846 10.5018M96.7604 10.5018C95.1179 1.16845 141.93 -2.67471 143.846 10.5018" stroke="#D0C6A2" stroke-width="4" stroke-linecap="round" stroke-linejoin="round"/>
<path d="M105.152 9.12912V9.06702L105.146 9.02458C105.154 8.996 105.223 8.77937 105.825 8.4138C106.507 7.9992 107.589 7.58278 109.027 7.21569C111.884 6.4863 115.904 6.01147 120.303 6.01147C124.705 6.01147 128.656 6.46732 131.477 7.18651C132.895 7.54804 133.971 7.96221 134.669 8.3828C135.428 8.84048 135.455 9.12283 135.455 9.12912C135.455 9.13542 135.428 9.41777 134.669 9.87544C133.971 10.296 132.895 10.7102 131.477 11.0717C128.656 11.7909 124.705 12.2468 120.303 12.2468C115.853 12.2468 111.904 12.0396 109.089 11.4448C107.675 11.146 106.635 10.7664 105.973 10.3281C105.336 9.90693 105.152 9.51291 105.152 9.12912Z" stroke="#D0C6A2" stroke-width="2"/>
</svg>
