<svg width="211" height="236" viewBox="0 0 211 236" fill="none" xmlns="http://www.w3.org/2000/svg">
<g id="Component 1">
<path id="Vector 154" d="M49.2117 171.02C49.7018 170.847 50.6819 170.292 50.6819 169.46C50.6819 168.627 51.0087 131.313 51.172 112.759" stroke="#D0C6A2" stroke-width="4"/>
<path id="Vector 153" d="M8.53452 213.155C8.53452 213.155 8.53452 196.986 8.53452 186.626M8.53452 213.155C8.53452 213.155 3.1435 211.594 2.65347 208.473C1.18315 200.15 2.65347 184.025 2.65347 184.025M8.53452 213.155L17.3561 208.994M8.53452 186.626C5.10385 186.626 3.1435 186.105 2.65347 184.025M8.53452 186.626C11.7882 185.61 16.866 184.025 16.866 184.025M2.65347 184.025C2.16332 176.742 14.4156 167.275 49.7018 171.02C62.2481 180.591 65.0579 185.412 64.8945 186.626M64.8945 186.626C66.0381 193.908 61.0719 208.473 32.0587 208.473M64.8945 186.626L68.5494 95.0729M32.0587 208.473C30.4904 206.809 27.1578 203.965 25.6876 202.751M32.0587 208.473L31.5686 233.962M25.6876 202.751C27.9746 200.844 42.3505 196.509 42.3505 196.509C50.5248 190.848 50.2611 178.303 32.0587 178.303C17.16 178.303 15.7225 182.117 16.866 184.025M25.6876 202.751V229.801L31.5686 233.962M16.866 184.025L17.3561 208.994M17.3561 208.994C19.3164 207.78 23.6291 205.664 25.1974 206.913M31.5686 233.962C38.7566 234.309 54.5047 232.402 59.9937 221.998C65.4826 211.594 66.8549 210.034 69.7954 207.433C76.6566 200.15 204.765 153.23 205.55 152.813L208 9.76241M208 9.76241L69.7954 63.8617M208 9.76241L201.139 3C159.155 19.8193 72.5399 52.7298 61.954 53.9782C50.1919 53.9782 37.4497 52.9378 23.2372 53.9782C11.8671 54.8105 5.1039 60.2204 3.14355 64.3819M69.7954 63.8617C65.0906 86.3338 42.3505 90.9114 31.5686 90.3912M69.7954 63.8617L68.5494 95.0729M31.5686 90.3912V115.88M31.5686 90.3912L25.6876 86.2297M31.5686 115.88C40.8664 116.574 61.2795 113.383 68.5494 95.0729M31.5686 115.88L25.6876 113.279V90.3912M25.6876 86.2297C27.1578 84.4958 31.0785 80.5077 43.3307 77.9067C53.6225 73.7453 41.3704 58.6599 32.5488 61.2608C25.8836 62.0931 19.6432 65.0755 17.3561 66.4627M25.6876 86.2297V90.3912M17.3561 66.4627V92.9921M17.3561 66.4627L8.53452 69.0636M17.3561 92.9921L8.53452 96.6334M17.3561 92.9921C19.6432 91.2582 24.5114 88.3105 25.6876 90.3912M8.53452 96.6334V69.0636M8.53452 96.6334C6.73753 95.9398 3.04554 93.7204 2.65347 90.3912C2.2614 87.062 2.98019 71.4911 3.14355 64.3819M8.53452 69.0636C6.57415 69.6416 2.65347 67.503 3.14355 64.3819" stroke="#D0C6A2" stroke-width="4"/>
</g>
</svg>
