<svg width="263" height="267" viewBox="0 0 263 267" fill="none" xmlns="http://www.w3.org/2000/svg">
<path d="M208 57.5L180 31.5L191 32.5L220 57.5L217 78L208 67.5" stroke="#D0C6A2" stroke-width="4" stroke-linecap="round" stroke-linejoin="round"/>
<path d="M136 10.5L157 26.5L172 25L146.5 4.5" stroke="#D0C6A2" stroke-width="4" stroke-linecap="round" stroke-linejoin="round"/>
<path d="M174 60L159.5 46.5M162 31L145 33L159.5 46.5M162 31L191 55.5V75.5L176.5 65M162 31L159.5 46.5" stroke="#D0C6A2" stroke-width="4" stroke-linecap="round" stroke-linejoin="round"/>
<path d="M98.5 19L122.5 37L138.5 29.5L109.5 6.5" stroke="#D0C6A2" stroke-width="4" stroke-linecap="round" stroke-linejoin="round"/>
<path d="M139 77.5L120.235 61M125.5 41.5L110 52L120.235 61M125.5 41.5L158 67.5L162 88.5L125.5 58M125.5 41.5V58M125.5 58L120.235 61" stroke="#D0C6A2" stroke-width="4" stroke-linecap="round" stroke-linejoin="round"/>
<path d="M58 38.5L88.5 61.5L98.4 54M98.4 54L105 49L75.5 24.5L74 32.5L98.4 54ZM88.5 87.4341L79 79.5L94.5 65L97.5 68.1098M88.5 87.4341L124.5 117.5L135.5 107.5L97.5 68.1098M88.5 87.4341L98.4 79.5M98.4 79.5L97.5 68.1098M98.4 79.5L131.5 110" stroke="#D0C6A2" stroke-width="4" stroke-linecap="round" stroke-linejoin="round"/>
<path d="M32 69L59.5 95L63.5 89.9333M72 78.5L47 56L37.5 66.5L63.5 89.9333M72 78.5L63.5 89.9333M72 78.5L76 73.5L46 48" stroke="#D0C6A2" stroke-width="4" stroke-linecap="round"/>
<path d="M55.5 112L85.5 142L101.5 147L69.5 114.5M55.5 112L69.5 114.5M55.5 112L65 95.5L76.5 106M69.5 114.5L76.5 106M76.5 106L100 123.5" stroke="#D0C6A2" stroke-width="4" stroke-linecap="round"/>
<path d="M13 103.5L40.5 128L45.5 119.5M45.5 119.5L50.5 111L24 88L20.5 98.5L45.5 119.5Z" stroke="#D0C6A2" stroke-width="4" stroke-linecap="round"/>
<path d="M2 138L30.5 164.5L32.5 153.5V147L12 129" stroke="#D0C6A2" stroke-width="4" stroke-linecap="round"/>
<path d="M71 177L38.5 152M38.5 152L44.5 131.5L56.5 141.1M38.5 152L55 147M55 147L91 177L93.5 163.5L77 157.5L56.5 141.1M55 147L56.5 141.1" stroke="#D0C6A2" stroke-width="4" stroke-linecap="round"/>
<path d="M8 166L28.5 179V202L33.5 204.5M33.5 204.5V195L42.5 202.25M33.5 204.5L42.5 202.25M68.5 225L51.5 209.5L42.5 202.25" stroke="#D0C6A2" stroke-width="4" stroke-linecap="round"/>
<path d="M37 188L68.5 210.5L84.5 207.5L74 195H67.5L49.0755 179.5M37 188L36 168.5L49.0755 179.5M37 188L49.0755 179.5" stroke="#D0C6A2" stroke-width="4" stroke-linecap="round"/>
<path d="M251.5 123.5L260.5 130.5L258.5 145L248 153.5L251.5 123.5ZM251.5 123.5L260.5 113.5V100M251.5 91L260.5 98.5V100M251.5 91L243 98.5L249.5 110.5L260.5 100M251.5 91L253 82L247 76.5L240.5 89.5L233 83L234.5 65.5L221.5 59L218.5 79L207 76.5L208 57.5H192V76.5L178 81L174.5 61.5L159 68.5L163.5 88L151 95L138.5 79L124.5 90.5L137 107L124.5 119L108.5 107L97.5 121L111 134.5L102.5 148L85 143L78 158L95.5 163.5L92 178H70.5L68.5 194.5H88V209L68.5 212.5L70.5 226L90 223.5L95.5 232.5L78 240L86.5 250.5L104 241.5L113 249.5L96.5 258.5L108.5 263L118 257.5M177 243L157.5 260L149.5 253L139 264.5H125L126.5 263M126.5 263L134.5 255H121.5L119 257.5L126.5 263ZM187.5 238V243L205 231.5V226L187.5 238ZM217.5 211.5L219.5 216.5L231.5 201L228.5 196.5L217.5 211.5ZM237.5 182.5H243L251.5 166L246.5 160.5L237.5 182.5Z" stroke="#D0C6A2" stroke-width="4"/>
<path d="M88.5 249.5L95.5 257.5" stroke="#D0C6A2" stroke-width="4"/>
<path d="M85 249L21.5 196.5V191.5L8.49999 178.5C7.66666 174.167 6.79999 165.2 9.99999 164C13.2 162.8 6 157.833 2 155.5V139L12 129.5V125L5.5 120L12 103.5L20 98L23 88L20 84.5L32 67.5H37.5L45 56.5V48L58 37L64.5 39L73 32.5L75 24.5L91 15L98 19L110 6.5L124 3L134 10.5L140.5 3L153 4L165 13L171 12C196.333 32 251 75 251 80" stroke="#D0C6A2" stroke-width="4" stroke-linecap="round"/>
<path d="M120.5 192.5C144 192.5 187.8 161.5 189 111.5" stroke="#D0C6A2" stroke-width="4"/>
<path d="M251.5 128.5C251.5 151.837 240.345 179.935 223.815 202.871C207.244 225.862 185.681 243.112 165.266 245.514C142.407 248.203 124.38 246.207 112.109 238.03C100.015 229.971 93.0332 215.562 93.0001 192.167C100.942 145.356 133.497 99.5722 184.208 80.3706L183.5 78.5015L184.208 80.3706C195.142 76.2306 212.049 76.7228 226.201 84.0935C240.205 91.387 251.5 105.404 251.5 128.5Z" stroke="#D0C6A2" stroke-width="4"/>
<path d="M119.986 185.236L120 185.119V185C120 169.394 129.36 150.601 142.788 135.615C156.242 120.601 173.241 110 188 110C198.265 110 207.845 112.186 214.838 118.062C221.765 123.882 226.5 133.62 226.5 149.5C226.5 165.087 217.607 182.117 204.367 195.962C191.17 209.763 173.97 220.062 157.807 222.507C141.517 223.215 131.631 218.7 126.044 211.916C120.395 205.056 118.772 195.436 119.986 185.236Z" stroke="#D0C6A2" stroke-width="4"/>
</svg>
