<svg width="1440" height="666" viewBox="0 0 1440 666" fill="none" xmlns="http://www.w3.org/2000/svg">
<path d="M1098.46 109.659L1100.09 186.843C1103.12 209.96 1144.59 253.746 1224.66 251.112C1313.01 248.206 1343.32 205.583 1349.15 186.029L1347.59 112.071M1347.59 112.071C1342.56 139.549 1312.45 182.232 1226.33 182.377C1114.46 182.565 1092.08 126.705 1099.8 101.775C1101.72 95.5815 1104.42 89.9871 1107.76 84.9385M1347.59 112.071C1348.81 105.366 1348.55 99.5658 1347.24 95.5101C1345.69 90.7062 1340.76 84.3973 1333.34 77.761M1268.45 44.0868C1258.72 41.6308 1242.72 40.9636 1223.34 40.8755C1187.76 40.714 1131.57 48.9909 1107.76 84.9385M1268.45 44.0868L1219.69 15.9706L1170.41 46.8308M1268.45 44.0868C1295.24 50.8484 1318.97 64.918 1333.34 77.761M1107.76 84.9385L943.449 185.226M943.449 185.226L1227.63 342.65M943.449 185.226L943.449 544.5M1227.63 342.65L1227.63 537M1227.63 342.65L1444 210.5M1333.34 77.761L1444 141" stroke="#D0C6A2" stroke-width="30" stroke-linecap="round" stroke-linejoin="round"/>
<path d="M548.405 347.824C548.405 427.522 414.305 445.627 347.255 444.718C285.612 440.169 162.975 413.602 165.571 343.729M548.405 347.824V451.541C538.672 477.471 493.251 536.153 353.744 533.424C217.252 530.753 176.385 481.11 162.327 451.541L165.571 343.729M548.405 347.824C546.753 331.608 539.618 318.095 528.793 306.882M165.571 343.729C166.014 331.796 169.871 321.391 176.257 312.341M601.937 557.988C608.425 526.6 656.117 465.461 794.976 466.553C819.278 466.744 840.82 468.777 859.863 472.165M989.637 559.353C986.783 546.978 977.047 529.533 957.193 513.103M176.257 312.341C195.049 285.713 235.749 270.81 275.879 263.2M176.257 312.341L-9.5 404M957.193 513.103C936.707 496.149 905.449 480.275 859.863 472.165M957.193 513.103L1021 549M275.879 263.2C301.971 258.253 327.822 256.388 347.255 256.388C371.191 255.876 404.382 257.861 436.925 264.576M275.879 263.2L358.61 225L436.925 264.576M436.925 264.576C472.723 271.963 507.739 285.074 528.793 306.882M528.793 306.882L859.863 472.165M169.5 566L-9.5 472.165" stroke="#912E40" stroke-width="30"/>
</svg>
