<svg width="341" height="252" viewBox="0 0 341 252" fill="none" xmlns="http://www.w3.org/2000/svg">
<path d="M163.553 41.8259C163.553 65.4611 129.772 70.8303 112.881 70.5604C97.3531 69.2114 66.4598 61.333 67.1136 40.6118M163.553 41.8259V72.584C161.101 80.2735 149.659 97.6761 114.516 96.8667C80.1324 96.0748 69.8379 81.3528 66.2963 72.584L67.1136 40.6118M163.553 41.8259C163.137 37.017 161.34 33.0099 158.613 29.6846M67.1136 40.6118C67.2252 37.0729 68.1967 33.9873 69.8056 31.3034M177.038 104.152C178.673 94.8432 190.687 76.7121 225.667 77.0358C231.789 77.0925 237.215 77.6954 242.012 78.7001M274.704 104.556C273.886 114.269 263.098 133.615 226.484 133.291C189.87 132.967 178.264 114.539 177.038 105.366V133.291C178.264 142.464 189.706 160.73 225.667 160.406C261.627 160.083 273.342 143.543 274.704 135.314V104.556ZM274.704 104.556C273.985 100.886 271.532 95.713 266.531 90.8405M5 68.1322L69.8056 31.3034M5 68.1322V119.531L225.667 246.205M5 68.1322L225.667 195.616M69.8056 31.3034C74.5394 23.4065 84.792 18.9871 94.9012 16.7304M225.667 246.205V195.616M225.667 246.205L336 182.666V133.291M225.667 195.616L336 133.291M336 133.291L266.531 90.8405M266.531 90.8405C261.37 85.8127 253.496 81.1052 242.012 78.7001M94.9012 16.7304C101.474 15.2632 107.986 14.7102 112.881 14.7102C118.911 14.5584 127.272 15.147 135.47 17.1385M94.9012 16.7304L115.742 5.40186L135.47 17.1385M135.47 17.1385C144.488 19.3291 153.309 23.2173 158.613 29.6846M158.613 29.6846L242.012 78.7001" stroke="#D0C6A2" stroke-width="10" stroke-linecap="round" stroke-linejoin="round"/>
</svg>
