<svg width="512" height="545" viewBox="0 0 512 545" fill="none" xmlns="http://www.w3.org/2000/svg">
<path d="M170.463 109.659L172.092 186.843C175.123 209.96 216.594 253.746 296.656 251.112C385.012 248.206 415.318 205.583 421.147 186.029L419.585 112.071M419.585 112.071C414.556 139.549 384.449 182.232 298.327 182.377C186.463 182.565 164.076 126.705 171.799 101.775C173.717 95.5815 176.422 89.9871 179.765 84.9385M419.585 112.071C420.813 105.366 420.547 99.5658 419.237 95.5101C417.686 90.7062 412.763 84.3973 405.338 77.761M340.45 44.0868C330.721 41.6308 314.72 40.9636 295.339 40.8755C259.762 40.714 203.569 48.9909 179.765 84.9385M340.45 44.0868L291.691 15.9706L242.413 46.8308M340.45 44.0868C367.236 50.8484 390.97 64.918 405.338 77.761M179.765 84.9385L15.449 185.226M15.449 185.226L299.629 342.65M15.449 185.226L15.4489 544.5M299.629 342.65L299.629 537M299.629 342.65L516 210.5M405.338 77.761L516 141" stroke="#D0C6A2" stroke-width="30" stroke-linejoin="round"/>
</svg>
