<svg width="512" height="547" viewBox="0 0 512 547" fill="none" xmlns="http://www.w3.org/2000/svg">
<path d="M170.463 111.659L172.092 188.843C175.123 211.96 216.594 255.746 296.656 253.112C385.012 250.206 415.318 207.583 421.147 188.029L419.585 114.071M419.585 114.071C414.556 141.549 384.449 184.232 298.327 184.377C186.463 184.565 164.076 128.705 171.799 103.775C173.717 97.5815 176.422 91.9871 179.765 86.9385M419.585 114.071C420.813 107.366 420.547 101.566 419.237 97.5101C417.686 92.7062 412.763 86.3973 405.338 79.761M340.45 46.0868C330.721 43.6308 314.72 42.9636 295.339 42.8755C259.762 42.714 203.569 50.9909 179.765 86.9385M340.45 46.0868L291.691 17.9706L242.413 48.8308M340.45 46.0868C367.236 52.8484 390.97 66.918 405.338 79.761M179.765 86.9385L15.449 187.226M15.449 187.226L299.629 344.65M15.449 187.226L15.4489 546.5M299.629 344.65L299.629 539M299.629 344.65L516 212.5M405.338 79.761L516 143" stroke="#D0C6A2" stroke-width="30"/>
</svg>
