<svg width="1029" height="372" viewBox="0 0 1029 372" fill="none" xmlns="http://www.w3.org/2000/svg">
<path d="M548.405 139.824C548.405 219.522 414.305 237.627 347.255 236.718C285.612 232.169 162.975 205.602 165.571 135.729M548.405 139.824V243.541C538.672 269.471 493.251 328.153 353.744 325.424C217.252 322.753 176.385 273.11 162.327 243.541L165.571 135.729M548.405 139.824C546.753 123.608 539.618 110.095 528.793 98.8824M165.571 135.729C166.014 123.796 169.871 113.391 176.257 104.341M601.937 349.988C608.425 318.6 656.117 257.461 794.976 258.553C819.278 258.744 840.82 260.777 859.863 264.165M989.637 351.353C986.783 338.978 977.047 321.533 957.193 305.103M176.257 104.341C195.049 77.7126 235.749 62.81 275.879 55.2004M176.257 104.341L-9.5 196M957.193 305.103C936.707 288.149 905.449 272.275 859.863 264.165M957.193 305.103L1021 341M275.879 55.2004C301.971 50.2528 327.822 48.3882 347.255 48.3882C371.191 47.8763 404.382 49.8611 436.925 56.5765M275.879 55.2004L358.61 17L436.925 56.5765M436.925 56.5765C472.723 63.9634 507.739 77.0744 528.793 98.8824M528.793 98.8824L859.863 264.165M169.5 358L-9.5 264.165" stroke="#912E40" stroke-width="30"/>
</svg>
