<svg width="67" height="84" viewBox="0 0 67 84" fill="none" xmlns="http://www.w3.org/2000/svg">
<path id="Lego #1" d="M19.9633 13.6685L20.1378 21.9309C20.4622 24.4056 24.9016 29.0929 33.4722 28.811C42.9307 28.4999 46.175 23.937 46.7989 21.8439L46.6317 13.9266M46.6317 13.9266C46.0933 16.8682 42.8704 21.4374 33.651 21.4529C21.6761 21.473 19.2796 15.4932 20.1063 12.8245C20.3117 12.1615 20.6012 11.5626 20.9591 11.0222M46.6317 13.9266C46.7631 13.2089 46.7346 12.588 46.5945 12.1538C46.4284 11.6396 45.9014 10.9642 45.1066 10.2538M38.1604 6.649C37.1188 6.38608 35.406 6.31466 33.3312 6.30524C29.5228 6.28794 23.5074 7.17398 20.9591 11.0222M38.1604 6.649L32.9408 3.63918L27.6655 6.94274M38.1604 6.649C41.0277 7.37283 43.5685 8.87896 45.1066 10.2538M20.9591 11.0222L3.36918 21.7579M3.36918 21.7579L33.7904 38.61M3.36918 21.7579L4.25334 63.6366L34.6699 80.266M33.7904 38.61L63.3644 20.6027M33.7904 38.61L34.6699 80.266M63.3644 20.6027L45.1066 10.2538M63.3644 20.6027L64.4688 62.3653L34.6699 80.266" stroke="#D0C6A2" stroke-width="5"/>
</svg>
